<?xml version="1.0" encoding="utf-8"?>
<!-- Generator: Adobe Illustrator 27.5.0, SVG Export Plug-In . SVG Version: 6.00 Build 0)  -->
<svg version="1.1" xmlns="http://www.w3.org/2000/svg" xmlns:xlink="http://www.w3.org/1999/xlink" x="0px" y="0px"
	 viewBox="0 0 650 400" style="enable-background:new 0 0 650 400;" xml:space="preserve">
<g id="_x30_">
	<rect style="fill:#FFFFFF;" width="650" height="400"/>
	<rect style="opacity:0;fill:#FFFFFF;" width="650" height="400"/>
</g>
<g id="bg">
	<path style="fill:#D2F1F7;" d="M593.954,349.714c6.118,19.167-33.838,18.962-33.14,19.167L267.9,368.659
		c-51.289,0.964-147.134,1.225-191.033-54.213c-3.054-3.856-5.663-8.054-7.982-12.394c-20.858-39.141-18.706-106.983,63.159-136.63
		c30.302-10.974,62.482-15.585,93.026-26.029c35.365-12.086,68.997-28.676,100.033-49.524
		c92.738-62.328,142.745-58.727,183.138-42.66c39.48,15.687,66.997,52.007,72.486,94.144c5.068,38.998-14.352,74.259-34.514,106.846
		C499.617,323.509,587.005,327.941,593.954,349.714z"/>
</g>
<g id="pers">
	<path style="fill:#2C2A2B;" d="M135.624,136.241c0.539,1.734,2.272,3.614,4.721,4.887c3.643,1.881,7.483,1.714,8.57-0.392
		c1.255-2.432-1.179-4.648-2.809-6.128c-1.022-0.928-1.714-1.763-2.17-3.102c-0.482-1.415-0.652-2.916-0.791-4.397
		c-0.057-0.605-0.086-1.215-0.159-1.819c-0.005-0.042-0.183-0.866-0.221-0.822c-0.002,0.002-5.945,6.895-5.945,6.895l-0.421,1.724
		c-0.274,0.225-0.499,0.5-0.666,0.813C135.379,134.586,135.359,135.399,135.624,136.241z"/>
	<g>
		<defs>
			<path id="SVGID_1_" d="M98.579,105.072c3.443,2.702,8.424,2.102,11.126-1.34c2.702-3.443,2.102-8.424-1.34-11.126
				c-3.443-2.702-8.424-2.102-11.126,1.34C94.537,97.388,95.137,102.369,98.579,105.072z"/>
		</defs>
		<use xlink:href="#SVGID_1_"  style="overflow:visible;fill:#6B3217;"/>
		<clipPath id="SVGID_00000044164284826627840310000009006565366284849845_">
			<use xlink:href="#SVGID_1_"  style="overflow:visible;"/>
		</clipPath>
		<g style="clip-path:url(#SVGID_00000044164284826627840310000009006565366284849845_);">
			<path style="fill:#2C2A2B;" d="M94.921,106.237c-2.772,0-5.434-0.824-7.634-2.387c-2.654-1.885-4.319-4.618-4.69-7.694
				c-0.371-3.077,0.598-6.127,2.729-8.588c2.125-2.455,5.15-4.03,8.521-4.436c3.371-0.41,6.684,0.405,9.331,2.285
				c2.654,1.885,4.319,4.618,4.69,7.694c0.371,3.077-0.598,6.127-2.729,8.588c-2.125,2.455-5.15,4.03-8.521,4.436
				C96.05,106.204,95.483,106.237,94.921,106.237z M83.087,96.097c0.354,2.937,1.947,5.547,4.486,7.35
				c2.546,1.809,5.738,2.589,8.985,2.198c3.248-0.392,6.163-1.907,8.207-4.269c2.038-2.354,2.965-5.269,2.612-8.205
				c-0.354-2.937-1.947-5.547-4.486-7.35c-2.545-1.809-5.735-2.586-8.985-2.198c-3.248,0.392-6.163,1.907-8.207,4.269
				C83.661,90.246,82.734,93.16,83.087,96.097z"/>
		</g>
		<g style="clip-path:url(#SVGID_00000044164284826627840310000009006565366284849845_);">
			<path style="fill:#2C2A2B;" d="M98.345,100.029c-3.393,0-6.297-2.304-6.677-5.461c-0.201-1.668,0.324-3.322,1.478-4.655
				c1.148-1.327,2.784-2.178,4.604-2.397c3.767-0.461,7.169,1.972,7.584,5.406c0.414,3.436-2.315,6.599-6.082,7.053
				C98.946,100.011,98.644,100.029,98.345,100.029z M98.656,87.954c-0.279,0-0.562,0.017-0.847,0.051
				c-1.698,0.205-3.222,0.997-4.289,2.231c-1.062,1.227-1.545,2.744-1.361,4.272c0,0,0,0,0,0c0.381,3.164,3.534,5.398,7.034,4.975
				c3.497-0.422,6.032-3.339,5.651-6.504C104.492,90.074,101.801,87.954,98.656,87.954z"/>
		</g>
	</g>
	<g>
		<path style="fill:#E07D4E;" d="M141.706,154.664c0.069,0.117,2.909,10.137,5.818,20.431c1.077,3.829,2.164,7.688,3.124,11.097
			c0.215,0.764,0.688,1.407,0.882,2.145c1.499,5.718,5.004,9.152,10.028,7.202l9.451-4.088c0-0.01-17.253-47.156-17.253-47.156
			s-5.742-4.342-9.337-2.971C139.561,143.195,138.865,150.306,141.706,154.664z"/>
	</g>
	<path style="fill:#2C2A2B;" d="M147.524,175.095c1.077,3.829,2.164,7.688,3.124,11.097c0.215,0.764,0.509,1.479,0.882,2.145
		c-0.274-6.092,3.036-12.86,2.85-13.085l-4.123-2.194L147.524,175.095z"/>
	<path style="fill:#6B3217;" d="M128.611,132.882c-0.519,0.235-0.823,0.382-0.823,0.382l2.409,8.844l7.111,2.576l8.08-1.195
		c0.098-0.392-6.161-2.507-3.898-10.196c0-0.01,0.01-0.02,0.01-0.029c0-0.402,0.421-1.048,0.548-1.44
		c0.186-0.529,0.343-1.077,0.49-1.626c0.294-1.166,0.509-2.36,0.646-3.565c0.549-4.829,0.01-10.225-2.145-14.662
		c-0.02-0.039-0.049-0.098-0.088-0.176c-0.235-0.529-0.842-1.91-1.538-3.222c-0.735-1.401-1.567-2.723-2.145-2.87
		c-0.48-0.127-0.882,0.568-1.303,1.126c-0.264,0.353-0.539,0.646-0.833,0.646c-0.94,0-1.841,0.304-2.684,0.852
		c-0.108,0.068-0.215,0.147-0.323,0.215c-3.066,2.302-5.23,8.021-5.23,14.711C126.897,126.878,127.533,130.218,128.611,132.882z"/>
	<path style="fill:#FFFFFF;" d="M105.457,146.354c4.88,4.425,7.542,13.124,6.925,18.58l-0.617,8.511l-0.02,0.167
		c-0.049,0.519-0.098,1.048-0.147,1.587c-0.069,0.725-0.127,1.547-0.206,2.439c-0.49,0.01-1.831,19.373-4.447,29.001
		c8.345,0.147,16.699,0.029,25.044-0.382c0.989,0.402,2.018,0.783,3.075,1.126c9.598,3.124,19.585-0.451,19.585-0.451
		c0.444-1.365-0.153-3.785-1.299-5.514c-1.755-2.647-2.976-4.727-3.348-7.497c-0.465-3.465-0.703-6.965-0.755-10.495
		c0.186-1.156,0.372-2.36,0.568-3.594c0-0.049,0.01-0.108,0.02-0.157c0.078-0.029,0.117-0.039,0.117-0.039
		c3.673-1.596,5.24-3.947,5.338-6.699c0,0,0,0,0-0.01c-0.098-1.89-0.852-4.701-2.262-7.238c-0.039-0.078-0.088-0.147-0.127-0.215
		c-0.206-0.363-0.431-0.715-0.666-1.077c0,0,0-0.01-0.01-0.01c-0.588-0.891-1.244-1.802-1.959-2.703v-0.01
		c-0.204-5.859,3.74-15.674,3.53-17.21c-0.013-0.039-0.032-0.098-0.045-0.138c-0.284-0.626-0.676-1.086-1.214-1.321
		c-3.379-1.469-7.436-2.869-10.063-3.799l-11.716,14.906l-17.115-13.79c-0.529-0.666-1.215-1.205-2.057-1.557
		c0,0-8.903,3.82-9.677,5.162C101.518,144.922,102.997,144.124,105.457,146.354z"/>
	
		<ellipse transform="matrix(0.6733 -0.7393 0.7393 0.6733 -37.4446 129.8408)" style="fill:#6B3217;" cx="128.208" cy="107.294" rx="9.148" ry="12.277"/>
	<path style="fill:#2C2A2B;" d="M107.798,171.971c0.01,0.068,0.02,0.137,0.029,0.206c0.108,0.656,0.215,1.293,0.323,1.949
		c0.431,2.684,3.467,21.234,3.467,21.234c1.831,1.469,5.729,7.315,12.703,7.364c3.431-7.922,2.403-20.643-1.146-20.939
		c-12.313-1.026-10.298-17.646-10.435-17.851l-4.745,7L107.798,171.971z"/>
	<path style="fill:#6B3217;" d="M113.786,101.975c-3.22,1.51-3.961,6.722-1.655,11.641c2.306,4.919,6.787,7.683,10.007,6.173
		s3.961-6.722,1.655-11.641C121.487,103.229,117.007,100.465,113.786,101.975z"/>
	<path style="fill:#E07D4E;" d="M125.212,142.431c6.337,0,11.871-1.499,14.838-3.742c0.147-0.108,0.284-0.215,0.421-0.333
		l2.292,0.93l-0.088,0.098l-11.916,15.512l-18.021-13.84C114.913,141.497,122.646,142.431,125.212,142.431z"/>
	<path style="fill:#2C2A2B;" d="M106.064,206.898c0,0.411,0.353,0.813,1.009,1.195c0.304,0.176,0.676,0.343,1.107,0.509
		c3.8,1.45,12.292,2.468,22.174,2.468c1.724,0,3.408-0.029,5.034-0.088c7.679-0.284,14.016-1.185,17.15-2.38
		c1.361-0.519,2.116-1.097,2.116-1.704c0-0.803-1.332-1.557-3.634-2.194c-3.702-1.028-9.912-1.753-17.16-1.93
		c-1.146-0.029-2.311-0.049-3.506-0.049c-8.727,0-16.386,0.793-20.666,1.979c-0.46,0.127-0.882,0.264-1.264,0.392
		C106.906,205.644,106.064,206.251,106.064,206.898z"/>
	<path style="fill:#FFB287;" d="M115.751,139.287l2.292,2.458c2.174,0.441,4.603,0.686,7.169,0.686c6.65,0,12.419-1.655,15.26-4.074
		l-1.283-0.519c-2.018-0.832-3.497-2.537-4.074-4.574c-0.176-0.607-0.264-1.254-0.264-1.91v-13.311h-13.79v14.084
		c0,2.439-1.273,4.701-3.359,5.975L115.751,139.287z"/>
	<path style="fill:#2C2A2B;" d="M124.031,126.194c0,0,2.742,5.012,11.08,7.069c-0.175-0.61-0.266-1.252-0.266-1.908v-3.861
		L124.031,126.194z"/>
	<g>
		<path style="fill:#E07D4E;" d="M102.45,194.801l5.446-4.016c0.97-1.508,1.655-3.222,2.165-4.975
			c1.097-3.869,1.293-7.943,1.538-10.646c0.049-0.539,0.098-1.068,0.147-1.587l0.02-0.167l0.617-8.511
			c0.617-5.455-1.181-14.602-6.007-19.085c-2.364-2.196-4.092-2.287-4.463-1.924c-0.343,0.588-5.524,14.672-8.737,42.458
			C92.558,191.677,96.475,194.782,102.45,194.801z"/>
	</g>
	<path style="fill:#FFB287;" d="M131.579,128.936l0.229-0.027c4.519-0.544,7.741-4.649,7.197-9.168l-2.196-18.232l-17.958,2.163
		l2.032,16.867C121.517,125.812,126.306,129.572,131.579,128.936z"/>
	<path style="fill:#2C2A2B;" d="M131.948,108.998c1.537-2.053,5.752-2.145,6.573,0.55c0.017,0.082-0.071,0.154-0.148,0.121
		c-1.002-0.389-1.857-0.321-2.844-0.177c-0.982,0.115-1.938,0.468-2.875,0.644C132.028,110.277,131.551,109.488,131.948,108.998
		L131.948,108.998z"/>
	<path style="fill:#2C2A2B;" d="M127.392,110.647c-1.259,0.288-2.648,0.559-3.821,1.178c-0.401,0.22-0.825,0.503-1.201,0.942
		c-0.04,0.046-0.109,0.05-0.155,0.011c-0.272-0.637-0.024-1.39,0.33-1.954c1.125-1.629,3.35-2.436,5.229-1.594
		C128.508,109.664,128.196,110.537,127.392,110.647L127.392,110.647z"/>
	<g>
		<path style="fill:#2C2A2B;" d="M124.499,115.669c-0.025,0-0.05-0.004-0.075-0.012c-0.13-0.042-0.202-0.18-0.16-0.311
			c0.016-0.048,0.391-1.202,1.301-1.835c0.161-0.116,0.323-0.203,0.493-0.265c0.484-0.188,0.98-0.204,1.433-0.042
			c0.471,0.15,0.805,0.441,0.965,0.582l0.057,0.048c0.129,0.042,0.175,0.17,0.132,0.3c-0.042,0.129-0.207,0.188-0.337,0.146
			c-0.062-0.021-0.103-0.056-0.178-0.122c-0.135-0.119-0.416-0.365-0.798-0.486c-0.352-0.126-0.719-0.111-1.101,0.037
			c-0.132,0.048-0.255,0.115-0.382,0.206c-0.773,0.538-1.112,1.572-1.116,1.582C124.701,115.602,124.604,115.669,124.499,115.669z"
			/>
	</g>
	<g>
		<path style="fill:#2C2A2B;" d="M132.672,114.684c-0.025,0-0.05-0.004-0.075-0.012c-0.13-0.042-0.202-0.181-0.16-0.311
			c0.016-0.049,0.391-1.202,1.301-1.835c0.161-0.116,0.323-0.203,0.493-0.265c0.486-0.188,0.983-0.202,1.434-0.042
			c0.471,0.149,0.805,0.441,0.965,0.582l0.057,0.048c0.129,0.042,0.175,0.17,0.132,0.3c-0.043,0.13-0.207,0.188-0.337,0.146
			c-0.061-0.021-0.103-0.056-0.178-0.122c-0.135-0.118-0.416-0.364-0.797-0.485c-0.352-0.124-0.72-0.111-1.102,0.036
			c-0.131,0.048-0.254,0.115-0.381,0.206c-0.773,0.538-1.112,1.572-1.116,1.582C132.874,114.617,132.776,114.684,132.672,114.684z"
			/>
	</g>
	<path style="fill:#2C2A2B;" d="M134.554,113.75c0.065,0.542,0.55,0.93,1.082,0.866c0.532-0.064,0.911-0.556,0.846-1.098
		c-0.065-0.542-0.55-0.93-1.082-0.866C134.868,112.716,134.489,113.208,134.554,113.75z"/>
	<path style="fill:#2C2A2B;" d="M126.509,114.719c0.065,0.542,0.55,0.93,1.082,0.866c0.532-0.064,0.911-0.556,0.846-1.098
		c-0.065-0.542-0.55-0.93-1.082-0.866C126.823,113.686,126.444,114.177,126.509,114.719z"/>
	<g>
		<path style="fill:#A55930;" d="M130.502,118.63c-0.045,0-0.078,0-0.096-0.001c-0.136-0.002-0.246-0.114-0.244-0.25
			c0.002-0.135,0.112-0.244,0.247-0.244c0.031-0.002,0.067,0.001,0.102,0.001c0.55,0,1.403-0.057,1.813-0.217
			c-0.097-0.706-0.834-3.906-1.312-5.909c-0.032-0.132,0.05-0.266,0.183-0.297c0.134-0.033,0.266,0.051,0.297,0.183
			c1.484,6.219,1.404,6.268,1.21,6.386C132.177,118.605,130.889,118.63,130.502,118.63z M132.575,118.072h0.006H132.575z"/>
	</g>
	<g>
		<path style="fill:#2C2A2B;" d="M122.023,182.093c-0.116,0-0.233-0.001-0.352-0.003c-0.136-0.002-0.246-0.114-0.244-0.251
			c0.002-0.136,0.132-0.263,0.25-0.244c3.908,0.043,6.625-0.851,6.652-0.859c4.98-2.168,6.384-5.937,4.153-11.193
			c-0.053-0.126,0.005-0.271,0.131-0.324c0.126-0.053,0.271,0.005,0.324,0.131c2.325,5.478,0.793,9.574-4.43,11.847
			C128.379,181.242,125.825,182.093,122.023,182.093z"/>
	</g>
	<g>
		<path style="fill:#2C2A2B;" d="M143.56,181.005c-0.116,0-0.233-0.001-0.352-0.003c-0.136-0.002-0.246-0.114-0.244-0.251
			c0.002-0.136,0.111-0.261,0.25-0.244c3.911,0.05,6.626-0.85,6.652-0.859c4.98-2.168,6.384-5.937,4.153-11.193
			c-0.023-0.054-2.371-5.495-4.944-8.161c-0.095-0.098-0.092-0.254,0.006-0.349c0.098-0.094,0.254-0.092,0.349,0.006
			c2.637,2.731,4.946,8.083,5.043,8.31c2.326,5.478,0.794,9.575-4.43,11.848C149.916,180.154,147.361,181.005,143.56,181.005z"/>
	</g>
	<path style="fill:#2C2A2B;" d="M130.795,107.544c0.167,0.127,0.343,0.274,0.548,0.431c0.255,0.186,0.519,0.382,0.784,0.568
		c2.38,1.675,5.142,3.134,8.825,3.252c-0.235-0.529-0.842-1.91-1.538-3.222c-1.273-0.764-2.576-1.381-3.448-1.743
		c-0.118-0.059-0.225-0.098-0.323-0.137c-0.754-0.294-1.518-0.411-2.282-0.313C132.421,106.486,131.569,106.897,130.795,107.544z"/>
	<path style="fill:#6B3217;" d="M118.904,101.015l6.605-2.143l2.917,1.579c0.05-0.046,0.094-0.095,0.146-0.14
		c0,0-1.218-3.462-1.218-3.462c1.943,0.374,3.886,0.747,5.829,1.121c3.128,0.601,6.406,0.997,9.267,2.494
		c2.074,1.085,4.247,3.762,3.309,6.003c-1.246,2.978-4.546,4.48-9.899,3.327c-2.174-0.468-4.086-1.305-5.557-2.329
		c0,0-0.022-0.016-0.064-0.045c-0.621-0.434-5.662-3.809-8.736-1.186c-3.279,2.799,0.07,10.091,0.07,10.091
		s-2.879,2.201-2.991,1.894c-0.112-0.307-5.533-11.333-5.533-11.333L118.904,101.015z"/>
	<path style="fill:#6B3217;" d="M106.73,152.108c-0.098,0.362-0.539,1.322-0.833,2.135h3.947c0.46-1.469,0.803-3.105,0.95-4.907
		c0.029-0.333,0.304,1.832,0.215,4.907h7.189c1.332-2.312,2.674-5.544,2.997-9.559c0.039-0.48,0.597,4.319-0.166,9.559h5.054
		c1.871-6.171,0.921-13.085-1.734-18.883c-1.548-3.379-2.596-6.67-2.693-10.431l0.225-8.541l-11.078-7.894
		c0.17,3.862-0.181,7.873-0.377,8.745c-0.96,4.192-1.758,6.554-3.403,10.373c-0.225,0.549-0.46,1.097-0.666,1.655
		c-1.861,4.887,0.274,8.756,0.921,13.585C107.7,145.928,107.445,149.17,106.73,152.108z"/>
	<path style="fill:#FFB287;" d="M118.419,120.114c1.693,1.329,3.793,1.479,4.69,0.335c0.898-1.144,0.253-3.148-1.44-4.477
		c-1.693-1.329-3.793-1.479-4.69-0.335C116.082,116.781,116.726,118.785,118.419,120.114z"/>
	<path style="fill:#6B3217;" d="M106.691,139.689c0.127,0.588,0.294,1.146,0.499,1.694c0.206,0.548,0.441,1.068,0.705,1.557
		c-0.176-0.646-0.372-1.263-0.597-1.851C107.112,140.6,106.916,140.129,106.691,139.689z"/>
	<g>
		<path style="fill:#2C2A2B;" d="M119.916,103.617c-0.053,0-0.107-0.017-0.152-0.052c-0.038-0.03-3.832-2.945-6.285-1.139
			c-0.108,0.082-0.264,0.059-0.345-0.052c-0.081-0.109-0.058-0.264,0.052-0.345c2.752-2.03,6.715,1.016,6.882,1.147
			c0.107,0.084,0.126,0.239,0.042,0.347C120.062,103.585,119.989,103.617,119.916,103.617z"/>
	</g>
	<g>
		<path style="fill:#2C2A2B;" d="M120.9,115.712c-0.037,0-0.074-0.008-0.109-0.024c-0.062-0.029-0.119-0.079-0.233-0.178
			c-0.564-0.488-2.063-1.785-4.216-0.768c-0.123,0.059-0.27,0.006-0.329-0.118c-0.058-0.123-0.005-0.271,0.118-0.329
			c2.447-1.153,4.181,0.349,4.75,0.842c0.062,0.053,0.106,0.093,0.134,0.112c0.124,0.059,0.17,0.203,0.112,0.326
			C121.084,115.662,120.993,115.712,120.9,115.712z"/>
	</g>
	<g>
		<path style="fill:#2C2A2B;" d="M112.68,144.931c-0.014,0-0.028-0.001-0.042-0.003c-0.134-0.023-0.225-0.15-0.202-0.285
			c0.526-3.104-0.224-5.183-1.019-7.384c-0.675-1.869-1.372-3.801-1.214-6.387c0.269-4.38,2.867-8.352,3.976-10.047
			c0.227-0.347,0.461-0.705,0.488-0.794c0.024-0.134,0.153-0.221,0.288-0.194c0.134,0.025,0.222,0.158,0.196,0.292
			c-0.028,0.15-0.166,0.365-0.559,0.966c-1.088,1.663-3.636,5.558-3.896,9.807c-0.152,2.484,0.528,4.368,1.186,6.189
			c0.781,2.164,1.589,4.402,1.041,7.634C112.902,144.845,112.798,144.931,112.68,144.931z"/>
	</g>
	<path style="fill:#45A8BF;" d="M103.518,220.629h53.673l-4.652-12.027l-1.518-3.898c-3.702-1.028-9.912-1.753-17.16-1.93
		c-1.146-0.029-2.311-0.049-3.506-0.049c-8.727,0-16.386,0.793-20.666,1.979l-1.508,3.898L103.518,220.629z"/>
	<path style="fill:#45A8BF;" d="M113.341,256.437c8.658,1.499,18.188-11.753,21.273-29.598c0.372-2.106,0.627-4.182,0.784-6.21
		c0.264-3.389,0.255-6.631-0.01-9.647c-0.264-2.997-0.783-5.759-1.528-8.208c-1.146-0.029-2.311-0.049-3.506-0.049
		c-8.727,0-16.386,0.793-20.666,1.979c-0.46,0.127-0.882,0.264-1.264,0.392c-0.48,0.96-0.93,1.959-1.352,2.997
		c-1.645,3.957-2.958,8.462-3.8,13.31C100.178,239.248,104.683,254.929,113.341,256.437z"/>
	<path style="fill:#E07D4E;" d="M96.632,197.897c-1.781-1.91-3.748-5.079-3.459-8.694c0.602-7.539,8.63-12.187,15.543-8.308
		c5.301,2.194,11.674,4.415,11.669,4.436c0.307,0.024,0.305,0.308,0.602,0.393c5.395,1.539,5.729,11.442,3.017,20.198
		c-2.487,8.026-7.563,15.815-12.548,15.873c-0.453,0.005-0.906-0.054-1.356-0.182c-1.346-0.384-2.358-1.304-3.077-2.604
		c-2.032-2.987-3.068-8.313-3.864-11.946c-0.728-3.323-3.585-6.421-5.269-8.024c-0.438-0.338-0.852-0.708-1.233-1.114
		C96.65,197.92,96.634,197.906,96.632,197.897z"/>
	<g>
		<path style="fill:#2C2A2B;" d="M121.379,146.686c-0.003,0-0.007,0-0.011,0c-0.136-0.006-0.242-0.122-0.236-0.258
			c0.161-3.602-1.058-5.89-2.349-8.313c-1.489-2.796-3.029-5.687-2.694-10.826c0.008-0.137,0.127-0.241,0.263-0.23
			c0.136,0.009,0.239,0.126,0.23,0.263c-0.326,4.998,1.18,7.826,2.637,10.561c1.323,2.484,2.573,4.831,2.406,8.568
			C121.62,146.583,121.511,146.686,121.379,146.686z"/>
	</g>
	<g>
		<path style="fill:#2C2A2B;" d="M140.864,108.564c-3.065,0-5.513-1.838-7.893-3.626c-2.43-1.824-4.942-3.712-8.079-3.577
			c-0.13-0.004-0.251-0.101-0.257-0.237c-0.005-0.136,0.1-0.251,0.237-0.257c3.308-0.121,5.898,1.801,8.396,3.676
			c2.835,2.127,5.515,4.139,9.167,3.357c1.343-0.287,3.308-1.472,3.26-3.107c-0.004-0.137,0.104-0.25,0.24-0.254
			c0.114-0.01,0.251,0.104,0.254,0.24c0.056,1.917-2.146,3.284-3.65,3.605C141.959,108.507,141.402,108.564,140.864,108.564z"/>
	</g>
	<g>
		<path style="fill:#2C2A2B;" d="M116.396,108.592c-0.008,0-0.016,0-0.024-0.001c-0.136-0.013-0.235-0.134-0.222-0.27
			c0.106-1.096,0.57-1.96,1.38-2.567c2.293-1.719,6.637-0.896,8.065-0.625c0.125,0.024,0.223,0.042,0.287,0.052
			c0.135,0.021,0.227,0.148,0.205,0.283c-0.022,0.135-0.149,0.225-0.283,0.205c-0.067-0.011-0.169-0.03-0.301-0.055
			c-3.688-0.699-6.271-0.519-7.676,0.535c-0.694,0.521-1.093,1.268-1.185,2.22C116.629,108.496,116.522,108.592,116.396,108.592z"/>
	</g>
	<path style="fill:#E07D4E;" d="M156.786,179.28c3.506-2.216,7.012-4.432,10.519-6.647c5.74-3.628,11.48-7.255,17.22-10.883
		c1.275-0.806,6.964-4.583,6.964-4.583c3.073,0.221,7.981,12.584,9.257,17.94c1.129,4.741,2.869,11.393,0.4,15.969
		c-1.369,2.537-4.255,2.863-6.832,2.358c-1.898-0.372-3.636-1.242-5.458-1.854c-1.984-0.666-3.927-0.778-5.987-0.425l-19.736,5.413
		c-4.4,0.963-7.93-0.752-9.718-3.492C151.253,189.766,152.706,181.773,156.786,179.28z"/>
	<path style="fill:#2C2A2B;" d="M188.846,175.467c0.029,0.362,0.069,0.725,0.117,1.097c1.322,10.431,6.357,17.463,10.186,16.406
		c3.859-1.087,4.133-8.531,1.655-17.934c-0.558-2.272-1.195-4.496-1.861-6.562c-1.293-3.977-2.752-7.365-4.221-9.393
		c-0.911-1.264-1.812-1.998-2.684-2.018c-1.352-0.049-2.419,2.057-3.007,5.407C188.435,165.849,188.307,170.482,188.846,175.467z"/>
	<path style="fill:#2C2A2B;" d="M111.931,221.736c3.408,0.46,8.834-5.475,12.272-15.485c1.273-3.742,1.792-7.375,1.714-10.539
		c-0.098-3.996-1.166-7.228-2.88-8.972c-0.588-0.598-1.244-1.019-1.969-1.244c-0.411-0.118-0.803-0.176-1.205-0.176h-0.01
		c-3.017,0.01-5.602,3.516-7.375,9.089c-0.578,1.812-1.058,3.839-1.45,6.033C109.13,210.169,105.124,220.815,111.931,221.736z"/>
	<g>
		<path style="fill:#2C2A2B;" d="M159.029,181.831c-0.015,0-0.031-0.001-0.046-0.004c-0.134-0.025-0.223-0.154-0.197-0.288
			c0.628-3.348,3.544-6.551,8.21-9.019c0.091-0.049,0.152-0.08,0.177-0.096c0.114-0.073,0.268-0.039,0.341,0.077
			c0.073,0.115,0.038,0.268-0.077,0.341c-0.029,0.018-0.101,0.057-0.209,0.114c-4.531,2.396-7.356,5.477-7.956,8.673
			C159.249,181.748,159.145,181.831,159.029,181.831z"/>
	</g>
	<g>
		<path style="fill:#2C2A2B;" d="M111.275,180.298c-0.008,0-0.015,0-0.023-0.001c-0.136-0.012-0.236-0.132-0.224-0.269l1.464-16.118
			c-0.006,0.012-0.006-0.07-0.005-0.206c0.02-2.535-0.906-4.344-2.752-5.377c-0.119-0.067-0.162-0.217-0.095-0.336
			c0.066-0.119,0.218-0.16,0.337-0.095c2.016,1.127,3.027,3.083,3.005,5.813c-0.001,0.091-0.002,0.156,0.001,0.189l-1.462,16.177
			C111.509,180.202,111.401,180.298,111.275,180.298z"/>
	</g>
	<g>
		<path style="fill:#2C2A2B;" d="M115.059,154.323c-0.056,0-0.112-0.019-0.159-0.058c-0.104-0.087-0.118-0.243-0.031-0.348
			c1.554-1.856,3.762-7.349,0.667-12.475c-0.071-0.117-0.033-0.269,0.083-0.339c0.116-0.071,0.269-0.034,0.339,0.083
			c3.233,5.355,0.917,11.103-0.711,13.048C115.2,154.293,115.129,154.323,115.059,154.323z"/>
	</g>
	<g>
		<path style="fill:#2C2A2B;" d="M121.23,186.068c-0.03,0-0.061-0.005-0.09-0.017l-9.681-3.786
			c-4.936-1.623-10.086-2.332-14.215,3.457c-0.08,0.111-0.234,0.137-0.345,0.058s-0.137-0.233-0.058-0.345
			c4.315-6.048,9.656-5.32,14.784-3.635l9.693,3.791c0.127,0.05,0.19,0.193,0.14,0.32
			C121.422,186.008,121.329,186.068,121.23,186.068z"/>
	</g>
	<g>
		<path style="fill:#2C2A2B;" d="M106.721,218.782c-0.076,0-0.152-0.035-0.2-0.102c-3.144-4.345-3.259-10.169-3.343-14.421
			c-0.046-2.345-0.086-4.37-0.661-5.156c-0.081-0.11-0.057-0.265,0.053-0.345c0.11-0.081,0.264-0.058,0.345,0.053
			c0.667,0.912,0.707,2.91,0.757,5.438c0.083,4.188,0.197,9.921,3.249,14.142c0.08,0.11,0.055,0.265-0.055,0.345
			C106.822,218.767,106.771,218.782,106.721,218.782z"/>
	</g>
	<g>
		<path style="fill:#2C2A2B;" d="M189.434,192.034c-0.027,0-0.056-0.004-0.083-0.014c-0.07-0.025-0.212-0.093-0.417-0.193
			c-4.401-2.145-8.426-2.753-11.968-1.815c-0.133,0.039-0.267-0.043-0.302-0.175c-0.035-0.132,0.043-0.267,0.175-0.302
			c3.659-0.97,7.801-0.35,12.311,1.848c0.182,0.088,0.306,0.15,0.367,0.172c0.128,0.046,0.196,0.188,0.15,0.316
			C189.63,191.971,189.535,192.034,189.434,192.034z"/>
	</g>
	<g>
		<path style="fill:#2C2A2B;" d="M94.895,173.96c-0.027,0-0.055-0.004-0.081-0.014c-0.129-0.045-0.197-0.186-0.152-0.315
			c1.182-3.377,4.988-8.122,6.239-9.682l0.137-0.171c0.085-0.106,0.242-0.123,0.347-0.039c0.106,0.085,0.124,0.241,0.038,0.347
			l-0.138,0.172c-1.238,1.543-5.004,6.239-6.157,9.536C95.093,173.897,94.997,173.96,94.895,173.96z"/>
	</g>
	<g>
		<path style="fill:#2C2A2B;" d="M111.824,182.462c-0.12,0-0.226-0.088-0.244-0.211c-0.292-1.966-3.206-4.132-4.771-5.296
			c-0.709-0.527-1.055-0.789-1.166-0.973c-0.071-0.116-0.034-0.267,0.082-0.338c0.116-0.07,0.269-0.035,0.34,0.081
			c0.07,0.112,0.563,0.479,1.039,0.833c1.736,1.291,4.642,3.452,4.965,5.621c0.02,0.135-0.073,0.26-0.208,0.281
			C111.848,182.461,111.836,182.462,111.824,182.462z"/>
	</g>
	<g>
		<path style="fill:#2C2A2B;" d="M164.813,174.352c-0.1,0-0.194-0.062-0.232-0.161c-0.151-0.357-2.162-2.723-6.596-2.783
			c-0.136-0.002-0.246-0.114-0.244-0.251c0.002-0.136,0.129-0.236,0.251-0.244c4.765,0.064,6.914,2.729,7.053,3.106
			c0.047,0.128-0.019,0.27-0.147,0.317C164.87,174.347,164.841,174.352,164.813,174.352z"/>
	</g>
	<g>
		<path style="fill:#2C2A2B;" d="M150.258,161.552c-0.129,0-0.238-0.1-0.247-0.23c-0.233-3.455,1.339-6.235,2.953-6.664
			c0.131-0.036,0.268,0.044,0.302,0.175c0.035,0.132-0.044,0.267-0.175,0.302c-1.205,0.321-2.819,2.696-2.586,6.153
			c0.009,0.136-0.094,0.254-0.23,0.263C150.269,161.552,150.264,161.552,150.258,161.552z"/>
	</g>
	<path style="fill:#45A8BF;" d="M124.105,220.708l0.823,1.547l2.086,3.937l18.678,35.269l6.474,12.223l-0.304,4.476l-5.367,79.501
		l4.3,2.429l36.592-2.429l-5.886-87.219c-0.186-2.703-0.901-5.338-2.106-7.767l-26.983-54.388L124.105,220.708z"/>
	<path style="fill:#2C2A2B;" d="M145.692,261.462l6.474,12.223l-0.304,4.476l0.059-0.02c0.539-5.994,1.009-7.63,1.851-9.197
		c-1.322-0.637-4.902-1.482-15.186-26.714c-4.253-10.436-3.345-17.752-3.443-18.007l-8.129,1.969L145.692,261.462z"/>
	<path style="fill:#2C2A2B;" d="M146.495,357.662c0.411,1.861,3.536,3.085,9.158,3.614c2.723,0.245,6.033,0.343,9.902,0.264
		c1.41-0.029,2.762-0.059,4.045-0.118c2.135-0.078,4.094-0.176,5.877-0.313c2.243-0.176,4.192-0.392,5.828-0.666
		c3.692-0.627,5.788-1.518,6.082-2.782c0.402-1.802-3.448-3.643-12.752-2.321c-1.939,0.274-4.114,0.686-6.533,1.263
		c-3.232,0.774-5.994,1.313-8.355,1.665c-0.803,0.127-1.557,0.225-2.262,0.304c-0.617,0.078-1.205,0.137-1.763,0.176
		C148.033,359.396,146.495,357.662,146.495,357.662z"/>
	<path style="fill:#2C2A2B;" d="M109.063,369.533l3.599,1.234c1.532,0.525,3.198,0.505,4.716-0.058l3.728-1.381
		c1.666-0.617,2.76-2.218,2.731-3.994l-0.079-4.811c0.693-2.317-1.561-4.428-3.828-3.587c0,0-11.15,1.591-12.79,3.154l-0.916,4.478
		C105.789,366.702,107.004,368.827,109.063,369.533z"/>
	<path style="fill:#FFB287;" d="M115.312,363.619c5.935-2.626,8.275-4.397,8.275-4.397l-15.228,0.082L115.312,363.619z"/>
	<path style="fill:#45A8BF;" d="M93.537,357.956c-0.029,0.068-0.069,0.137-0.069,0.215c0,1.871,9.128,3.399,20.382,3.399
		c10.725,0,19.501-1.381,20.304-3.134h0.118l-1.068-89.746l2.39-50.529l-33.301,14.535l0.186,3.8l0.029,0.568
		c0,0.088,0.01,0.176,0.01,0.274l0.069,1.303v0.049l1.352,27.189c0.118,2.37,0.029,4.75-0.255,7.111l-0.705,5.886
		c-0.01,0.02-0.01,0.03-0.01,0.039l-9.501,79.031L93.537,357.956z"/>
	<g>
		<path style="fill:#2C2A2B;" d="M133.837,255.482c-0.002,0-0.005,0-0.007,0c-0.136-0.004-0.244-0.118-0.24-0.255
			c0.088-2.956,0.878-28.921,1.449-30.296c0.599-1.447,3.75-2.898,3.883-2.959c0.122-0.06,0.27-0.003,0.327,0.122
			c0.057,0.124,0.002,0.271-0.122,0.327c-0.862,0.393-3.196,1.646-3.632,2.699c-0.405,0.977-1.066,18.549-1.411,30.122
			C134.081,255.377,133.971,255.482,133.837,255.482z"/>
	</g>
	<g>
		<path style="fill:#2C2A2B;" d="M135.359,215.627c-0.003,0-0.006,0-0.009,0c-0.136-0.005-0.243-0.119-0.238-0.256
			c0.039-1.087,0.069-2.338,0.088-3.629c0.047-3.171,0.014-6.762-0.04-8.913c-0.003-0.136,0.105-0.249,0.241-0.253
			c0.002,0,0.004,0,0.006,0c0.134,0,0.244,0.106,0.247,0.241c0.053,2.156,0.086,5.755,0.04,8.933
			c-0.02,1.295-0.049,2.55-0.088,3.639C135.601,215.523,135.491,215.627,135.359,215.627z"/>
	</g>
	<g>
		<path style="fill:#2C2A2B;" d="M153.773,211.277h-0.294c-1.592-0.009-4.444-0.055-6.357-0.086l-0.738-0.012
			c-0.736-0.02-1.215-0.029-1.215-0.029c-0.12-0.003-0.22-0.09-0.239-0.208l-1.205-7.463c-0.021-0.135,0.07-0.262,0.205-0.283
			c0.137-0.02,0.262,0.069,0.284,0.205l1.171,7.26c0.208,0.004,0.561,0.013,1.01,0.024l0.736,0.012
			c1.911,0.031,4.761,0.077,6.351,0.086h0.293c0.136,0,0.247,0.11,0.247,0.247S153.909,211.277,153.773,211.277z"/>
	</g>
	<g>
		<path style="fill:#2C2A2B;" d="M116.252,211.273c-0.517,0-0.858-0.006-0.93-0.019c-0.134-0.026-0.222-0.155-0.196-0.29
			c0.026-0.134,0.16-0.22,0.289-0.196c0.325,0.048,5.617-0.038,9.224-0.107l1.279-7.915c0.022-0.136,0.147-0.224,0.284-0.205
			c0.135,0.023,0.226,0.149,0.205,0.283l-1.313,8.119c-0.019,0.118-0.12,0.206-0.239,0.208
			C123.622,211.174,118.412,211.273,116.252,211.273z"/>
	</g>
	<g>
		<path style="fill:#2C2A2B;" d="M151.383,285.607c-0.006,0-0.011,0-0.017-0.001c-0.136-0.009-0.239-0.126-0.23-0.263
			c0.196-2.939,0.373-5.302,0.54-7.224c0.535-5.954,1.012-7.679,1.879-9.293c0.107-0.213,0.227-0.424,0.357-0.645
			c0.07-0.118,0.223-0.156,0.338-0.087c0.118,0.069,0.157,0.221,0.087,0.339c-0.125,0.21-0.24,0.411-0.344,0.621
			c-0.838,1.56-1.299,3.242-1.826,9.109c-0.166,1.917-0.342,4.277-0.539,7.213C151.62,285.508,151.512,285.607,151.383,285.607z"/>
	</g>
	<g>
		<path style="fill:#2C2A2B;" d="M173.955,267.409c-0.094,0-0.184-0.054-0.225-0.146c-0.056-0.124-0.001-0.271,0.123-0.326
			c3.693-1.675,5.52-1.58,6.404-1.206c0.647,0.274,0.814,0.696,0.831,0.744c0.046,0.128-0.021,0.27-0.149,0.315
			c-0.128,0.046-0.267-0.019-0.314-0.144c-0.008-0.019-0.127-0.288-0.596-0.475c-0.798-0.318-2.484-0.366-5.971,1.215
			C174.024,267.402,173.989,267.409,173.955,267.409z"/>
	</g>
	<g>
		<path style="fill:#2C2A2B;" d="M114.002,267.409c-0.094,0-0.184-0.054-0.225-0.146c-0.056-0.124-0.001-0.271,0.123-0.326
			c6.182-2.805,9.974-0.092,10.132,0.025c0.11,0.081,0.133,0.235,0.052,0.346c-0.081,0.109-0.234,0.133-0.345,0.053
			c-0.036-0.026-3.731-2.65-9.635,0.025C114.071,267.402,114.036,267.409,114.002,267.409z"/>
	</g>
	<path style="fill:#2C2A2B;" d="M103.939,265.879c0.118,2.37,0.029,4.75-0.255,7.111l-0.705,5.886
		c0.215-0.695,3.497-8.11,2.586-16.347c-0.852-7.659-2.537-17.287-2.978-23.839L103.939,265.879z"/>
	<g>
		<path style="fill:#2C2A2B;" d="M184.407,313.754c-0.129,0-0.238-0.1-0.246-0.23c-0.655-9.697-6.884-24.228-7.808-24.842
			c-0.113-0.076-0.144-0.23-0.068-0.343c0.076-0.113,0.229-0.143,0.343-0.069c1.093,0.728,7.36,15.358,8.026,25.221
			c0.009,0.136-0.094,0.254-0.23,0.263C184.417,313.754,184.412,313.754,184.407,313.754z"/>
	</g>
	<g>
		<path style="fill:#2C2A2B;" d="M147.266,346.496c-0.009,0-0.018,0-0.028-0.002c-0.136-0.015-0.233-0.137-0.218-0.272
			c1.088-9.732,7.246-20.477,10.554-26.249c0.999-1.743,1.942-3.389,1.934-3.688c-0.02-0.136,0.075-0.258,0.21-0.277
			c0.136-0.018,0.261,0.077,0.28,0.212c0.056,0.394-0.469,1.335-1.995,3.999c-3.29,5.741-9.414,16.428-10.491,26.058
			C147.497,346.402,147.39,346.496,147.266,346.496z"/>
	</g>
	<g>
		<path style="fill:#2C2A2B;" d="M133.439,288.723c-0.135,0-0.246-0.108-0.247-0.244c-0.146-12.232-5.044-24.189-6.355-25.54
			c-0.095-0.098-0.093-0.254,0.005-0.349c0.099-0.096,0.255-0.094,0.35,0.005c1.61,1.657,6.354,14.08,6.495,25.878
			c0.001,0.137-0.108,0.248-0.244,0.25C133.441,288.723,133.44,288.723,133.439,288.723z"/>
	</g>
	<g>
		<path style="fill:#2C2A2B;" d="M98.108,319.602c-0.019,0-0.038-0.002-0.057-0.007c-0.133-0.031-0.215-0.165-0.183-0.298
			c1.868-7.845,10.934-22.827,11.655-23.729c0.085-0.105,0.242-0.123,0.347-0.039c0.106,0.086,0.124,0.241,0.039,0.348
			c-0.715,0.895-9.708,15.755-11.561,23.536C98.321,319.525,98.22,319.602,98.108,319.602z"/>
	</g>
	<g>
		<path style="fill:#2C2A2B;" d="M170.21,244.412c-0.089,0-0.176-0.049-0.22-0.135c-0.035-0.066-3.525-6.714-12.084-9.748
			c-0.128-0.045-0.196-0.186-0.15-0.315c0.046-0.128,0.186-0.196,0.315-0.149c8.752,3.102,12.324,9.92,12.359,9.988
			c0.063,0.121,0.014,0.27-0.107,0.332C170.287,244.403,170.249,244.412,170.21,244.412z"/>
	</g>
	<g>
		<path style="fill:#2C2A2B;" d="M102.587,235.234c-0.014,0-0.027-0.001-0.041-0.003c-0.135-0.023-0.226-0.15-0.203-0.285
			c0.71-4.245,3.814-6.646,5.668-8.081c0.689-0.533,1.284-0.993,1.386-1.278c0.046-0.13,0.188-0.195,0.315-0.149
			c0.129,0.046,0.196,0.188,0.149,0.315c-0.15,0.422-0.707,0.852-1.549,1.504c-1.797,1.39-4.805,3.717-5.483,7.771
			C102.811,235.148,102.706,235.234,102.587,235.234z"/>
	</g>
	<g>
		<path style="fill:#2C2A2B;" d="M155.929,215.627c-0.047,0-0.095-0.014-0.137-0.042c-0.032-0.021-3.241-2.095-11.536-2.264
			c-0.137-0.003-0.245-0.115-0.242-0.252c0.003-0.137,0.143-0.254,0.252-0.242c8.466,0.173,11.669,2.259,11.801,2.348
			c0.113,0.076,0.143,0.229,0.067,0.342C156.087,215.588,156.008,215.627,155.929,215.627z"/>
	</g>
	<path style="fill:#FFB287;" d="M157.484,358.573c2.223,0.588,6.925,1.812,12.116,2.85c5.23,1.058,11.048,1.929,15.25,1.724
		c0,0-1.508-1.146-3.545-2.703c-2.008-1.538-4.545-3.477-6.67-5.103c-1.939,0.274-4.114,0.686-6.533,1.263
		C163.772,357.642,160.286,358.25,157.484,358.573z"/>
	<g>
		<path style="fill:#2C2A2B;" d="M153.994,202.939c-0.105,0-0.204-0.068-0.236-0.174c-1.116-3.621-5.248-5.463-6.804-6.156
			c-0.461-0.206-0.598-0.269-0.675-0.354c-0.092-0.101-0.084-0.257,0.017-0.349c0.098-0.087,0.244-0.084,0.337,0.005
			c0.058,0.04,0.294,0.145,0.522,0.247c1.612,0.718,5.894,2.627,7.076,6.461c0.04,0.131-0.033,0.27-0.164,0.31
			C154.042,202.935,154.018,202.939,153.994,202.939z"/>
	</g>
	<path style="fill:#2C2A2B;" d="M168.523,368.299v-3.34l10.225,3.34h16.347c1.587,0,3.144-0.392,4.545-1.146
		c0.784-0.431,0.578-1.616-0.304-1.753l-23.859-4.29l-15.73-2.84c-0.803,0.127-1.557,0.225-2.262,0.304
		c-0.617,0.078-1.205,0.137-1.763,0.176l-0.069,2.527l-0.176,7.023H168.523z"/>
	<path style="fill:#FFB287;" d="M117.35,186.567c-0.944,0.481,3.788,4.603,4.939,3.462c4.756-4.713,8.955-9.807,8.683-11.315l0,0
		c0.018-0.298-0.32-0.482-0.56-0.304C130.412,178.41,124.311,183.022,117.35,186.567z"/>
	<g>
		<path style="fill:#2C2A2B;" d="M125.742,194.551c-0.139,0.755,0.043,1.534,0.502,2.15l0.18,0.242l5.192-26.528
			c-0.068-1.955,0.533-2.444,1.225-2.428l23.773,0.045l-0.706-0.63c-0.373-0.525-0.975-0.841-1.619-0.85l-22.319-0.111
			c-0.651-0.002-1.211,0.462-1.329,1.103L125.742,194.551z"/>
		<path style="fill:#5AC7E0;" d="M131.123,168.702l-5.021,27.352c-0.111,0.604,0.353,1.161,0.967,1.161h22.764
			c0.639,0,1.19-0.448,1.32-1.074l5.669-27.279c0.127-0.609-0.337-1.182-0.96-1.184l-23.41-0.082
			C131.801,167.595,131.241,168.06,131.123,168.702z"/>
		<path style="fill:#2C2A2B;" d="M140.763,177.906c0.07,1.045,1.168,1.822,2.452,1.735c1.284-0.086,2.268-1.003,2.198-2.048
			s-1.168-1.822-2.452-1.735C141.677,175.944,140.693,176.861,140.763,177.906z"/>
	</g>
	<g>
		<path style="fill:#FFB287;" d="M188.846,175.467l10.098-6.993l2.263-1.567l-5.436-8.452l-1.048,0.627l-5.691,3.389
			C188.435,165.849,188.307,170.482,188.846,175.467z"/>
		<path style="fill:#FFB287;" d="M195.778,158.93l3.163,9.493c0,0,10.233-1.7,12.338-3.611c1.573-1.428-3.359-7.807-3.359-7.807
			L195.778,158.93z"/>
		<path style="fill:#FFB287;" d="M192.079,160.835c-0.777,0.721,4.903,3.391,5.698,1.978c3.285-5.834,5.93-11.884,5.255-13.259l0,0
			c-0.064-0.292-0.44-0.376-0.622-0.14C202.41,149.414,197.804,155.52,192.079,160.835z"/>
		<path style="fill:#FFB287;" d="M207.773,159.795c0.155-0.042,0.329-0.105,0.458-0.168l0.213-0.122
			c0.154-0.087,0.233-0.153,0.353-0.23c0.213-0.151,0.408-0.297,0.596-0.448c0.377-0.3,0.732-0.606,1.078-0.92
			c0.692-0.627,1.346-1.28,1.975-1.956c1.02-1.102,2.494-2.939,3.544-4.425c0.252-0.357-0.052-0.839-0.483-0.767l0,0
			c-0.782,0.13-1.488,0.538-2.011,1.134c-0.793,0.904-1.61,1.641-2.576,2.527c-0.638,0.582-1.298,1.14-1.976,1.659
			c-0.338,0.26-0.683,0.51-1.025,0.739c-0.17,0.116-0.343,0.224-0.503,0.317c-0.072,0.037-0.173,0.104-0.219,0.118l-0.081,0.038
			c0.026-0.019,0.094-0.047,0.145-0.048L207.773,159.795z"/>
		<path style="fill:#FFB287;" d="M207.87,161.573c0.15-0.041,0.33-0.104,0.446-0.157l0.224-0.112
			c0.158-0.077,0.271-0.147,0.405-0.221c0.262-0.146,0.497-0.295,0.744-0.445c0.48-0.302,0.949-0.612,1.41-0.932
			c0.921-0.639,1.815-1.313,2.676-2.033c1.558-1.3,3.467-3.282,4.769-5.087c0.168-0.233-0.004-0.558-0.291-0.561l0,0
			c-0.98-0.01-1.933,0.378-2.587,1.108c-0.94,1.051-1.941,1.907-3.218,2.832c-0.852,0.62-1.738,1.198-2.643,1.739
			c-0.452,0.271-0.909,0.53-1.367,0.777c-0.227,0.117-0.46,0.244-0.681,0.347c-0.108,0.05-0.231,0.114-0.321,0.148l-0.144,0.061
			c-0.009-0.001,0.041-0.022,0.064-0.017L207.87,161.573z"/>
		<path style="fill:#FFB287;" d="M208.369,164.169c0.125-0.046,0.271-0.104,0.374-0.152l0.227-0.118
			c0.159-0.08,0.279-0.155,0.419-0.233c0.271-0.155,0.526-0.313,0.783-0.474c0.508-0.323,1.007-0.653,1.493-0.999
			c0.974-0.689,1.918-1.413,2.823-2.189c1.571-1.347,3.688-3.416,5.103-5.263c0.241-0.314-0.013-0.764-0.407-0.729l-0.153,0.013
			c-0.911,0.08-1.741,0.524-2.355,1.203c-1.049,1.161-2.151,2.043-3.542,3.088c-0.894,0.673-1.828,1.299-2.78,1.885
			c-0.475,0.294-0.96,0.572-1.445,0.839c-0.242,0.13-0.487,0.261-0.725,0.378c-0.116,0.055-0.246,0.124-0.349,0.166l-0.162,0.072
			c-0.03,0.009-0.019,0.001-0.028,0.01L208.369,164.169z"/>
		<path style="fill:#FFB287;" d="M208.506,166.079l0.316-0.092l0.21-0.078l0.396-0.158c0.171-0.069,0.335-0.142,0.497-0.215
			c0.329-0.148,0.657-0.297,0.979-0.46c1.196-0.606,2.36-1.269,3.464-2.038c1.54-1.064,3.542-2.942,4.845-4.646
			c0.238-0.311,0.03-0.761-0.361-0.788l0,0c-0.743-0.053-1.469,0.229-1.979,0.772c-1.044,1.11-2.318,2.045-3.671,2.841
			c-1.066,0.635-2.199,1.176-3.344,1.655c-0.291,0.122-0.586,0.23-0.882,0.339c-0.149,0.055-0.299,0.109-0.445,0.156l-0.329,0.105
			l-0.155,0.046c-0.027,0.004-0.037,0.005-0.055,0.011L208.506,166.079z"/>
	</g>
	<g>
		<path style="fill:#FFB287;" d="M128.966,189.52c0.173,0.042,0.376,0.073,0.534,0.082l0.272-0.005
			c0.196-0.002,0.308-0.024,0.466-0.036c0.288-0.033,0.554-0.071,0.818-0.117c0.527-0.09,1.034-0.198,1.538-0.319
			c1.006-0.24,1.991-0.526,2.963-0.847c1.579-0.526,3.991-1.524,5.804-2.409c0.435-0.212,0.397-0.842-0.06-1.002l0,0
			c-0.829-0.291-1.733-0.271-2.559,0.028c-1.253,0.455-2.439,0.736-3.851,1.08c-0.93,0.224-1.869,0.415-2.805,0.558
			c-0.467,0.072-2.924,0.4-2.874,0.425L128.966,189.52z"/>
		<path style="fill:#FFB287;" d="M130.054,191.213c0.156,0.026,0.35,0.046,0.48,0.047l0.256-0.007c0.179-0.003,0.314-0.02,0.47-0.03
			c0.305-0.022,0.587-0.059,0.879-0.091c0.574-0.073,1.141-0.157,1.704-0.255c1.127-0.195,2.242-0.433,3.348-0.728
			c1.999-0.532,4.617-1.542,6.597-2.65c0.255-0.143,0.236-0.518-0.028-0.644l0,0c-0.901-0.431-1.95-0.482-2.868-0.088
			c-1.321,0.567-2.614,0.928-4.193,1.233c-1.054,0.206-2.122,0.36-3.191,0.47c-0.534,0.056-1.068,0.098-1.598,0.13
			c-0.26,0.01-0.53,0.027-0.779,0.027c-0.121,0-0.263,0.006-0.361-0.001l-0.16-0.006c-0.008-0.005,0.048-0.003,0.066,0.012
			L130.054,191.213z"/>
		<path style="fill:#FFB287;" d="M128.416,193.691c0.135,0.012,0.295,0.021,0.411,0.02l0.261-0.011
			c0.181-0.005,0.325-0.024,0.488-0.035c0.318-0.027,0.621-0.063,0.928-0.101c0.609-0.08,1.211-0.171,1.809-0.281
			c1.196-0.218,2.381-0.481,3.551-0.809c2.031-0.569,4.878-1.571,6.981-2.669c0.358-0.187,0.317-0.711-0.063-0.849l-0.147-0.053
			c-0.877-0.318-1.835-0.264-2.694,0.099c-1.469,0.622-2.867,0.963-4.603,1.331c-1.116,0.237-2.248,0.414-3.381,0.547
			c-0.566,0.068-1.133,0.116-1.696,0.154c-0.279,0.016-0.563,0.032-0.833,0.037c-0.131,0.001-0.281,0.009-0.394,0.003l-0.181-0.004
			c-0.031-0.004-0.018-0.007-0.03-0.003L128.416,193.691z"/>
		<path style="fill:#FFB287;" d="M127.473,194.994l0.333,0.043l0.228,0.013l0.434,0.015c0.188,0.006,0.37,0.005,0.553,0.003
			c0.367-0.003,0.735-0.008,1.102-0.028c1.365-0.075,2.724-0.217,4.07-0.482c1.873-0.362,4.512-1.294,6.428-2.35
			c0.35-0.193,0.339-0.698-0.014-0.884l0,0c-0.672-0.354-1.465-0.388-2.164-0.091c-1.43,0.608-3.002,0.958-4.592,1.147
			c-1.255,0.156-2.534,0.196-3.8,0.174c-0.321-0.006-0.641-0.026-0.962-0.046c-0.162-0.01-0.324-0.021-0.479-0.037l-0.35-0.037
			l-0.164-0.021c-0.027-0.007-0.036-0.011-0.056-0.012L127.473,194.994z"/>
		<path style="fill:#FFB287;" d="M112.479,194.41l4.682,1.077c1.792,0.411,3.634,0.578,5.465,0.47
			c0.97-0.059,2.116-0.137,3.291-0.245c2.929-0.255,6.033-0.676,7.179-1.332c1.783-1.028-2.037-7.512-2.037-7.512l-8.022-0.127
			l-0.94-0.02l0.118-0.578c0,0-0.95-0.343-2.351-0.823h-0.01C116.838,185.33,114.252,188.837,112.479,194.41z"/>
	</g>
	<g>
		<path style="fill:#A55930;" d="M130.984,191.638c-0.126,0-0.234-0.097-0.246-0.226c-0.012-0.136,0.089-0.256,0.225-0.268
			c6.628-0.573,11.363-3.08,12.656-3.834l0.167,0.188l0.082,0.238c-1.316,0.768-6.131,3.318-12.862,3.899
			C130.999,191.638,130.992,191.638,130.984,191.638z"/>
	</g>
	<g>
		<path style="fill:#A55930;" d="M131.173,193.958c-0.125,0-0.232-0.095-0.245-0.222c-0.014-0.136,0.084-0.257,0.22-0.271
			c5.738-0.596,11.517-3.842,11.574-3.875c0.118-0.068,0.27-0.027,0.337,0.093c0.067,0.119,0.026,0.27-0.093,0.337
			c-0.059,0.033-5.928,3.331-11.768,3.936C131.19,193.958,131.182,193.958,131.173,193.958z"/>
	</g>
	<g>
		<path style="fill:#A55930;" d="M130.984,189.48c-0.127,0-0.236-0.099-0.246-0.228c-0.01-0.136,0.092-0.255,0.228-0.266
			c2.733-0.21,5.364-1.206,5.39-1.217c0.129-0.047,0.27,0.016,0.319,0.143c0.048,0.127-0.015,0.271-0.143,0.319
			c-0.11,0.042-2.725,1.032-5.529,1.248C130.998,189.48,130.991,189.48,130.984,189.48z"/>
	</g>
	<g>
		<path style="fill:#A55930;" d="M197.995,162.307c-0.071,0-0.141-0.03-0.19-0.089c-0.087-0.105-0.072-0.261,0.033-0.348
			c0.777-0.644,1.818-2.549,2.856-5.227c0.028-0.072,0.046-0.117,0.051-0.127c0.058-0.125,0.207-0.176,0.328-0.122
			c0.123,0.057,0.178,0.202,0.122,0.325l-0.04,0.103c-0.627,1.618-1.852,4.475-3.001,5.429
			C198.106,162.288,198.05,162.307,197.995,162.307z"/>
	</g>
	<g>
		<path style="fill:#A55930;" d="M211.021,163.948c-0.097,0-0.19-0.058-0.229-0.154l-0.123-0.302
			c-0.658-1.625-2.201-5.43-3.512-6.025c-0.124-0.057-0.179-0.203-0.123-0.327c0.057-0.125,0.203-0.179,0.327-0.123
			c1.491,0.676,2.971,4.328,3.766,6.289l0.123,0.301c0.051,0.126-0.009,0.27-0.136,0.322
			C211.084,163.942,211.052,163.948,211.021,163.948z"/>
	</g>
	<g>
		<path style="fill:#A55930;" d="M201.591,163.948c-0.052,0-0.104-0.016-0.148-0.049c-1.211-0.909-3.815-1.129-4.922-0.12
			c-0.101,0.091-0.257,0.084-0.349-0.016c-0.092-0.101-0.085-0.257,0.016-0.349c1.299-1.183,4.186-0.936,5.552,0.089
			c0.109,0.082,0.131,0.237,0.049,0.346C201.74,163.914,201.665,163.948,201.591,163.948z"/>
	</g>
	<g>
		<path style="fill:#A55930;" d="M210.846,162.686c-0.087,0-0.172-0.046-0.217-0.129c-0.065-0.12-0.021-0.27,0.099-0.335
			c1.25-0.681,3.149-1.718,3.254-1.783c0.114-0.071,0.266-0.037,0.339,0.077c0.073,0.114,0.042,0.264-0.071,0.338
			c-0.097,0.063-2.54,1.395-3.287,1.802C210.926,162.677,210.886,162.686,210.846,162.686z"/>
	</g>
	<g>
		<path style="fill:#A55930;" d="M209.69,160.886c-0.086,0-0.17-0.045-0.216-0.126c-0.066-0.119-0.024-0.27,0.095-0.336
			c2.521-1.407,5.905-4.33,5.934-4.356c0.102-0.092,0.257-0.085,0.349,0.015s0.086,0.256-0.014,0.348
			c-0.029,0.027-3.434,2.977-6.028,4.425C209.773,160.876,209.731,160.886,209.69,160.886z"/>
	</g>
	<g>
		<path style="fill:#A55930;" d="M208.657,158.729c-0.097,0-0.189-0.058-0.228-0.153c-0.052-0.126,0.008-0.271,0.134-0.323
			c1.812-0.747,5.027-3.475,5.06-3.502c0.104-0.088,0.259-0.076,0.348,0.028c0.088,0.104,0.076,0.26-0.028,0.348
			c-0.134,0.114-3.308,2.808-5.191,3.583C208.72,158.723,208.688,158.729,208.657,158.729z"/>
	</g>
	<g>
		<path style="fill:#A55930;" d="M121.093,117.858c-0.082,0-0.162-0.04-0.208-0.115c-0.048-0.076-1.207-1.846-3.109-1.015
			c-0.126,0.054-0.271-0.003-0.326-0.127c-0.055-0.126,0.002-0.271,0.127-0.326c2.294-1.003,3.71,1.181,3.725,1.204
			c0.073,0.115,0.039,0.267-0.077,0.34C121.184,117.846,121.138,117.858,121.093,117.858z"/>
	</g>
	<g>
		<path style="fill:#2C2A2B;" d="M133.57,159.337c-0.091,0-0.179-0.051-0.222-0.139c-0.02-0.04-2.039-4.111-6.586-7.061
			c-0.115-0.075-0.147-0.227-0.073-0.342c0.075-0.114,0.229-0.146,0.342-0.073c4.668,3.028,6.741,7.218,6.762,7.26
			c0.06,0.123,0.009,0.27-0.114,0.33C133.644,159.33,133.607,159.337,133.57,159.337z"/>
	</g>
	<path style="fill:#2C2A2B;" d="M132.443,121.916c0,0.077,0,0.166-0.026,0.243c-0.205,0.781-1.409,1.127-2.69,0.794
		c-1.281-0.333-2.152-1.242-1.947-2.023c0.026-0.077,0.051-0.154,0.09-0.218c0.602,0.333,1.358,0.64,2.216,0.858
		C130.945,121.788,131.751,121.903,132.443,121.916z"/>
	<path style="fill:#FFFFFF;" d="M132.443,121.916c-0.692-0.013-1.498-0.128-2.357-0.346c-0.858-0.218-1.614-0.525-2.216-0.858
		c0.359-0.627,1.447-0.884,2.6-0.576C131.61,120.43,132.43,121.186,132.443,121.916z"/>
</g>
<g id="chat_00000100383751486757931030000006327253364719381177_">
	<rect x="229.548" y="103.769" style="fill:#FFFFFF;" width="150.865" height="187.616"/>
	<path style="fill:#1388E5;" d="M371.168,338.258H238.623c-5.059,0-9.16-4.101-9.16-9.16v-37.886h150.866v37.886
		C380.328,334.156,376.227,338.258,371.168,338.258z"/>
	<path style="fill:#1388E5;" d="M380.328,103.769H229.462V76.981c0-5.059,4.101-9.16,9.16-9.16h132.545
		c5.059,0,9.16,4.101,9.16,9.16V103.769z"/>
	<g>
		<path style="fill:#FFFFFF;" d="M243.028,76.961c0,2.747-2.227,4.973-4.974,4.973c-2.747,0-4.974-2.227-4.974-4.973
			c0-2.747,2.227-4.974,4.974-4.974C240.801,71.988,243.028,74.215,243.028,76.961z"/>
		<g>
			<path style="fill:#1388E5;" d="M240.541,79.778c-0.085,0-0.169-0.032-0.233-0.097l-4.974-4.974c-0.129-0.129-0.129-0.338,0-0.467
				c0.129-0.129,0.338-0.129,0.467,0l4.974,4.974c0.129,0.129,0.129,0.338,0,0.467C240.71,79.746,240.626,79.778,240.541,79.778z"/>
		</g>
		<g>
			<path style="fill:#1388E5;" d="M235.567,79.778c-0.085,0-0.169-0.032-0.233-0.097c-0.129-0.129-0.129-0.338,0-0.467l4.974-4.974
				c0.129-0.129,0.338-0.129,0.467,0c0.129,0.129,0.129,0.338,0,0.467l-4.974,4.974C235.736,79.746,235.652,79.778,235.567,79.778z"
				/>
		</g>
	</g>
	<path style="fill:#B1E4FA;" d="M338.277,244.683h-90.774c-4.216,0-7.634,3.418-7.634,7.633v11.457v1.756
		c0,2.709-1.775,5.097-4.369,5.878h12.003h0.747h90.027c4.216,0,7.634-3.418,7.634-7.634v-11.457
		C345.911,248.101,342.493,244.683,338.277,244.683z"/>
	<path style="fill:#B1E4FA;" d="M353.008,212.405H246.672c-3.924,0-7.105,3.418-7.105,7.634v6.042v1.756
		c0,2.709-1.652,5.097-4.066,5.878h11.171h0.696h105.641c3.924,0,7.105-3.418,7.105-7.634v-6.042
		C360.113,215.822,356.932,212.405,353.008,212.405z"/>
	<g>
		<g>
			<path style="fill:#FFFFFF;" d="M364.895,93.259c-1.234,0-2.467-0.403-3.483-1.18c-1.795-1.372-3.4-2.977-4.772-4.771
				c-1.152-1.507-1.482-3.489-0.883-5.301c0.066-0.233,0.148-0.419,0.236-0.604c0.029-0.063,0.061-0.131,0.096-0.198
				c0.378-0.725,0.861-1.349,0.882-1.375c0.219-0.326,0.582-0.538,1.01-0.58c0.498-0.046,1.001,0.142,1.381,0.522l1.711,1.711
				c0.64,0.639,0.71,1.605,0.161,2.2l-1.568,1.684c1.076,1.316,2.371,2.609,3.691,3.683l1.678-1.565
				c0.597-0.549,1.563-0.479,2.201,0.161l1.712,1.712c0.38,0.379,0.57,0.883,0.522,1.381c-0.041,0.427-0.253,0.79-0.597,1.023
				c-0.008,0.007-0.633,0.49-1.355,0.867c-0.072,0.037-0.138,0.068-0.206,0.1c-0.18,0.086-0.366,0.168-0.549,0.227l-0.104,0.02
				C366.085,93.165,365.489,93.259,364.895,93.259z M358.128,79.903c-0.028,0-0.057,0.001-0.085,0.004
				c-0.228,0.022-0.419,0.132-0.539,0.31c-0.018,0.024-0.481,0.623-0.829,1.291c-0.029,0.056-0.058,0.115-0.085,0.175
				c-0.078,0.164-0.148,0.323-0.2,0.479c-0.537,1.657-0.246,3.411,0.775,4.745c1.336,1.748,2.899,3.313,4.647,4.648
				c1.335,1.02,3.088,1.311,4.693,0.78l0.102-0.019c0.107-0.039,0.266-0.11,0.424-0.187l0.185-0.089
				c0.662-0.346,1.263-0.81,1.269-0.814c0.195-0.133,0.305-0.324,0.326-0.552c0.029-0.296-0.095-0.614-0.331-0.851l-1.712-1.712
				c-0.381-0.382-0.956-0.444-1.285-0.143l-2.094,1.952l-0.223-0.176c-1.508-1.197-2.998-2.685-4.196-4.188l-0.178-0.222
				l1.957-2.101c0.301-0.326,0.236-0.903-0.145-1.284l-1.711-1.711C358.68,80.024,358.399,79.903,358.128,79.903z"/>
		</g>
		<g>
			<g>
				<path style="fill:#FFFFFF;" d="M366.646,85.221c-0.183,0-0.33-0.148-0.33-0.33v-6.226c0-0.182,0.147-0.33,0.33-0.33
					c0.183,0,0.33,0.148,0.33,0.33v6.226C366.976,85.073,366.828,85.221,366.646,85.221z"/>
			</g>
			<g>
				<path style="fill:#FFFFFF;" d="M369.759,82.107h-6.227c-0.183,0-0.33-0.148-0.33-0.33c0-0.182,0.147-0.33,0.33-0.33h6.227
					c0.183,0,0.33,0.148,0.33,0.33C370.089,81.96,369.941,82.107,369.759,82.107z"/>
			</g>
		</g>
	</g>
	<path style="fill:#FFFFFF;" d="M364.029,324.681H246.482c-5.494,0-9.947-4.453-9.947-9.947l0,0c0-5.494,4.454-9.947,9.947-9.947
		h117.547c5.494,0,9.947,4.453,9.947,9.947l0,0C373.976,320.228,369.523,324.681,364.029,324.681z"/>
	<g>
		<g>
			<path style="fill:#FFFFFF;" d="M369.762,314.734c0,3.587-2.908,6.495-6.495,6.495c-3.587,0-6.495-2.908-6.495-6.495
				c0-3.587,2.908-6.495,6.495-6.495C366.855,308.239,369.762,311.147,369.762,314.734z"/>
			<path style="fill:#F9773B;" d="M363.268,321.89c-3.945,0-7.155-3.21-7.155-7.155c0-3.945,3.21-7.155,7.155-7.155
				c3.945,0,7.155,3.21,7.155,7.155C370.423,318.68,367.213,321.89,363.268,321.89z M363.268,308.899
				c-3.218,0-5.835,2.617-5.835,5.835c0,3.218,2.617,5.835,5.835,5.835c3.218,0,5.835-2.617,5.835-5.835
				C369.103,311.517,366.485,308.899,363.268,308.899z"/>
		</g>
		<g>
			<g>
				<path style="fill:#F9773B;" d="M363.268,317.034c-1.232,0-2.233-1.002-2.233-2.233v-3.319c0-1.231,1.002-2.233,2.233-2.233
					c1.232,0,2.234,1.002,2.234,2.233v3.319C365.502,316.032,364.5,317.034,363.268,317.034z M363.268,309.908
					c-0.867,0-1.573,0.706-1.573,1.573v3.319c0,0.867,0.706,1.573,1.573,1.573c0.868,0,1.574-0.706,1.574-1.573v-3.319
					C364.842,310.614,364.136,309.908,363.268,309.908z"/>
			</g>
			<g>
				<path style="fill:#F9773B;" d="M363.268,318.611c-1.921,0-3.484-1.563-3.484-3.484c0-0.183,0.147-0.33,0.33-0.33
					c0.183,0,0.33,0.147,0.33,0.33c0,1.558,1.267,2.824,2.824,2.824c1.558,0,2.824-1.267,2.824-2.824c0-0.183,0.147-0.33,0.33-0.33
					c0.183,0,0.33,0.147,0.33,0.33C366.752,317.048,365.189,318.611,363.268,318.611z"/>
			</g>
			<g>
				<path style="fill:#F9773B;" d="M363.268,320.221c-0.183,0-0.33-0.147-0.33-0.33v-1.609c0-0.183,0.147-0.33,0.33-0.33
					c0.183,0,0.33,0.147,0.33,0.33v1.609C363.598,320.073,363.45,320.221,363.268,320.221z"/>
			</g>
		</g>
	</g>
	<g>
		<g>
			<path style="fill:#FFFFFF;" d="M354.419,219.577H245.918c-0.176,0-0.318-0.143-0.318-0.318c0-0.176,0.143-0.318,0.318-0.318
				h108.501c0.176,0,0.318,0.143,0.318,0.318C354.737,219.435,354.595,219.577,354.419,219.577z"/>
		</g>
		<g>
			<path style="fill:#FFFFFF;" d="M307.446,227.178h-61.528c-0.176,0-0.318-0.143-0.318-0.318c0-0.176,0.143-0.318,0.318-0.318
				h61.528c0.176,0,0.318,0.143,0.318,0.318C307.765,227.035,307.622,227.178,307.446,227.178z"/>
		</g>
	</g>
	<g>
		<g>
			<path style="fill:#FFFFFF;" d="M338.776,251.148h-92.083c-0.182,0-0.33-0.147-0.33-0.33c0-0.183,0.148-0.33,0.33-0.33h92.083
				c0.183,0,0.33,0.147,0.33,0.33C339.106,251.001,338.959,251.148,338.776,251.148z"/>
		</g>
		<g>
			<path style="fill:#FFFFFF;" d="M338.776,266.349h-92.083c-0.182,0-0.33-0.147-0.33-0.33c0-0.183,0.148-0.33,0.33-0.33h92.083
				c0.183,0,0.33,0.147,0.33,0.33C339.106,266.201,338.959,266.349,338.776,266.349z"/>
		</g>
		<g>
			<path style="fill:#FFFFFF;" d="M312.8,258.748h-66.106c-0.182,0-0.33-0.147-0.33-0.33s0.148-0.33,0.33-0.33H312.8
				c0.182,0,0.33,0.148,0.33,0.33S312.982,258.748,312.8,258.748z"/>
		</g>
	</g>
	<path style="fill:#F9773B;" d="M261.414,130.013h123.6c5.741,0,10.394,5.151,10.394,11.505v17.268v2.646
		c0,4.082,2.417,7.682,5.949,8.859h-16.343h-1.018H261.414c-5.74,0-10.394-5.151-10.394-11.505v-17.268
		C251.02,135.164,255.673,130.013,261.414,130.013z"/>
	<g>
		<g>
			<path style="fill:#FFFFFF;" d="M386.117,139.733H260.734c-0.261,0-0.473-0.212-0.473-0.473c0-0.261,0.212-0.473,0.473-0.473
				h125.383c0.261,0,0.473,0.212,0.473,0.473C386.59,139.521,386.378,139.733,386.117,139.733z"/>
		</g>
		<g>
			<path style="fill:#FFFFFF;" d="M386.117,162.642H260.734c-0.261,0-0.473-0.212-0.473-0.473c0-0.261,0.212-0.473,0.473-0.473
				h125.383c0.261,0,0.473,0.212,0.473,0.473C386.59,162.43,386.378,162.642,386.117,162.642z"/>
		</g>
		<g>
			<path style="fill:#FFFFFF;" d="M386.117,151.188h-90.013c-0.261,0-0.473-0.212-0.473-0.473c0-0.261,0.212-0.473,0.473-0.473
				h90.013c0.261,0,0.473,0.212,0.473,0.473C386.59,150.976,386.378,151.188,386.117,151.188z"/>
		</g>
	</g>
	<g>
		<g>
			<path style="fill:#B1E4FA;" d="M242.341,286.209c-0.883,0-1.6-0.716-1.6-1.6c0-0.883,0.716-1.6,1.6-1.6
				c0.884,0,1.6,0.716,1.6,1.6C243.941,285.493,243.225,286.209,242.341,286.209z"/>
		</g>
		<g>
			<path style="fill:#B1E4FA;" d="M248.702,286.209c-0.883,0-1.6-0.716-1.6-1.6c0-0.883,0.716-1.6,1.6-1.6
				c0.884,0,1.6,0.716,1.6,1.6C250.302,285.493,249.586,286.209,248.702,286.209z"/>
		</g>
		<g>
			<path style="fill:#B1E4FA;" d="M255.063,286.209c-0.884,0-1.6-0.716-1.6-1.6c0-0.883,0.716-1.6,1.6-1.6
				c0.883,0,1.6,0.716,1.6,1.6C256.663,285.493,255.947,286.209,255.063,286.209z"/>
		</g>
	</g>
	<g>
		<g>
			<g>
				<path style="fill:#F9773B;" d="M245.143,319.228c-0.182,0-0.33-0.147-0.33-0.33v-8.742c0-0.183,0.148-0.33,0.33-0.33
					c0.182,0,0.33,0.147,0.33,0.33v8.742C245.473,319.08,245.325,319.228,245.143,319.228z"/>
			</g>
			<g>
				<path style="fill:#F9773B;" d="M249.3,314.856h-8.314c-0.182,0-0.33-0.147-0.33-0.33c0-0.183,0.148-0.33,0.33-0.33h8.314
					c0.182,0,0.33,0.148,0.33,0.33C249.63,314.709,249.482,314.856,249.3,314.856z"/>
			</g>
		</g>
	</g>
</g>
<g id="robot">
	<g>
		<g>
			<path style="fill:#1388E5;" d="M426.465,210.377c-0.113,1.467-0.595,6.874-2.072,13.389c-1.221,5.376-3.109,11.522-6.033,16.836
				c-3.786,6.915-9.306,12.425-17.308,13.04c-0.472,0.041-0.934,0.062-1.385,0.062c-18.252,0-24.459-28.43-24.716-29.671
				c-0.585-2.77,1.19-5.489,3.96-6.074c2.77-0.585,5.489,1.19,6.074,3.96c1.241,5.786,6.7,22.161,15.277,21.494
				c4.535-0.349,7.931-4.74,10.414-10.373c1.58-3.581,2.781-7.664,3.663-11.532c1.077-4.75,1.683-9.162,1.898-11.912
				c0.215-2.821,2.678-4.955,5.499-4.719C424.567,205.093,426.681,207.555,426.465,210.377z"/>
		</g>
		<g>
			<defs>
				<path id="SVGID_00000036945886193876107350000008763895197362841013_" d="M399.667,253.699
					c-18.25,0-24.459-28.423-24.721-29.662c-0.584-2.772,1.189-5.494,3.961-6.079c2.777-0.582,5.493,1.188,6.078,3.96
					c1.237,5.791,6.696,22.16,15.28,21.499c10.958-0.842,15.308-25.316,15.968-33.823c0.218-2.823,2.68-4.951,5.508-4.72
					c2.824,0.217,4.938,2.679,4.722,5.503c-0.325,4.254-3.793,41.61-25.412,43.269C400.582,253.682,400.121,253.699,399.667,253.699
					z"/>
			</defs>
			<clipPath id="SVGID_00000146491372731882608980000001282796995243156653_">
				<use xlink:href="#SVGID_00000036945886193876107350000008763895197362841013_"  style="overflow:visible;"/>
			</clipPath>
			<g style="clip-path:url(#SVGID_00000146491372731882608980000001282796995243156653_);">
				<path style="fill:#2C2A2B;" d="M375.984,232.969c-1.159,0-2.292-0.124-3.373-0.375c-3.317-0.77-5.758-2.64-6.871-5.264
					c-0.063-0.148,0.007-0.32,0.155-0.384c0.146-0.063,0.32,0.007,0.384,0.155c1.038,2.448,3.334,4.196,6.465,4.923
					c3.165,0.732,6.794,0.338,10.221-1.117c7.043-2.988,11.017-9.558,8.858-14.645c-0.063-0.148,0.007-0.32,0.155-0.384
					c0.148-0.063,0.32,0.007,0.384,0.155c2.284,5.384-1.829,12.297-9.169,15.412C380.818,232.453,378.346,232.969,375.984,232.969z"
					/>
			</g>
			<g style="clip-path:url(#SVGID_00000146491372731882608980000001282796995243156653_);">
				<path style="fill:#2C2A2B;" d="M381.598,245.565c-1.159,0-2.291-0.124-3.372-0.375c-3.318-0.77-5.758-2.639-6.872-5.263
					c-0.063-0.148,0.007-0.32,0.155-0.384c0.147-0.061,0.32,0.007,0.384,0.155c1.038,2.447,3.334,4.195,6.465,4.922
					c3.165,0.735,6.795,0.337,10.222-1.117c7.042-2.988,11.016-9.558,8.857-14.645c-0.063-0.148,0.007-0.32,0.155-0.384
					c0.146-0.063,0.319,0.007,0.384,0.155c2.283,5.384-1.829,12.297-9.168,15.412C386.433,245.05,383.96,245.565,381.598,245.565z"
					/>
			</g>
			<g style="clip-path:url(#SVGID_00000146491372731882608980000001282796995243156653_);">
				<path style="fill:#2C2A2B;" d="M394.682,260.947c-0.161,0-0.292-0.131-0.292-0.292c0-0.161,0.131-0.292,0.292-0.292
					c5.525,0,10.022-6.225,10.022-13.875c0-7.65-4.496-13.875-10.022-13.875c-0.161,0-0.292-0.131-0.292-0.292
					s0.131-0.292,0.292-0.292c5.848,0,10.605,6.486,10.605,14.459C405.287,254.461,400.529,260.947,394.682,260.947z"/>
			</g>
			<g style="clip-path:url(#SVGID_00000146491372731882608980000001282796995243156653_);">
				<path style="fill:#2C2A2B;" d="M418.133,256.44c-0.091,0-0.181-0.042-0.238-0.122c-0.094-0.132-0.063-0.315,0.068-0.408
					c4.499-3.207,4.546-10.885,0.104-17.114c-2.161-3.031-5.048-5.268-8.13-6.296c-3.047-1.016-5.92-0.727-8.084,0.816
					c-0.133,0.092-0.314,0.063-0.408-0.068c-0.094-0.132-0.063-0.314,0.068-0.408c2.323-1.655,5.38-1.972,8.609-0.895
					c3.198,1.067,6.189,3.38,8.421,6.511c4.628,6.492,4.52,14.536-0.241,17.931C418.251,256.422,418.191,256.44,418.133,256.44z"/>
			</g>
			<path style="clip-path:url(#SVGID_00000146491372731882608980000001282796995243156653_);fill:#2C2A2B;" d="M424.393,223.766
				c-1.221,5.376-3.109,11.522-6.033,16.836c-2.565-4.063-5.417-6.32-7.685-7.561c1.58-3.581,2.781-7.664,3.663-11.532l7.941,0.102
				L424.393,223.766z"/>
		</g>
		<g>
			<path style="fill:#5AC7E0;" d="M438.577,170.805c-1.334,2.514-3.796,4.484-6.895,5.202c-0.934,0.215-1.867,0.308-2.78,0.277
				c-4.463-0.123-8.393-3.047-9.398-7.356c-1.211-5.202,2.278-10.455,7.797-11.737c5.52-1.283,10.978,1.888,12.189,7.09
				C440.023,166.557,439.644,168.845,438.577,170.805z"/>
			<g>
				<defs>
					<path id="SVGID_00000139997839345533451650000007490007058476065923_" d="M439.487,164.275
						c1.209,5.197-2.284,10.45-7.803,11.734c-5.519,1.284-10.973-1.888-12.182-7.085c-1.209-5.197,2.284-10.451,7.803-11.734
						C432.824,155.906,438.278,159.078,439.487,164.275z"/>
				</defs>
				<clipPath id="SVGID_00000137814207544366818140000009140815577673237904_">
					<use xlink:href="#SVGID_00000139997839345533451650000007490007058476065923_"  style="overflow:visible;"/>
				</clipPath>
				<g style="clip-path:url(#SVGID_00000137814207544366818140000009140815577673237904_);">
					<path style="fill:#2C2A2B;" d="M420.806,178.616c-0.123,0-0.232-0.088-0.253-0.212c-0.024-0.14,0.069-0.272,0.209-0.297
						c2.395-0.417,3.588-5.096,2.659-10.43c-0.929-5.335-3.628-9.331-6.026-8.919c-0.141,0.023-0.273-0.07-0.297-0.209
						c-0.025-0.14,0.069-0.272,0.209-0.297c2.722-0.461,5.627,3.629,6.62,9.337c0.993,5.708-0.358,10.55-3.077,11.024
						C420.835,178.615,420.82,178.616,420.806,178.616z"/>
				</g>
			</g>
			<path style="fill:#2C2A2B;" d="M438.577,170.805c-1.334,2.514-3.796,4.484-6.895,5.202c-0.934,0.215-1.867,0.308-2.78,0.277
				c4.524-5.202,4.001-14.764,3.909-15.339L438.577,170.805z"/>
			<path style="fill:#5AC7E0;" d="M514.894,168.927c-1.088,4.699-5.664,7.746-10.619,7.326c-0.513-0.041-1.036-0.123-1.559-0.246
				c-3.95-0.913-6.864-3.878-7.757-7.387c-0.359-1.385-0.39-2.863-0.051-4.34c1.211-5.202,6.669-8.372,12.189-7.09
				S516.104,163.726,514.894,168.927z"/>
			<path style="fill:#2C2A2B;" d="M504.275,176.253c-0.513-0.041-1.036-0.123-1.559-0.246c-3.95-0.913-6.864-3.878-7.757-7.387
				l6.064-7.674C500.95,161.622,499.863,170.62,504.275,176.253z"/>
			<g>
				<defs>
					<path id="SVGID_00000069373732670757752940000014351684271941734292_" d="M494.912,164.275
						c-1.209,5.197,2.284,10.45,7.803,11.734c5.519,1.284,10.973-1.888,12.182-7.085c1.209-5.197-2.285-10.451-7.803-11.734
						C501.575,155.906,496.121,159.078,494.912,164.275z"/>
				</defs>
				<clipPath id="SVGID_00000051373497034789449380000002603566575735164803_">
					<use xlink:href="#SVGID_00000069373732670757752940000014351684271941734292_"  style="overflow:visible;"/>
				</clipPath>
				<g style="clip-path:url(#SVGID_00000051373497034789449380000002603566575735164803_);">
					<path style="fill:#2C2A2B;" d="M513.593,178.616c-0.015,0-0.029-0.001-0.044-0.003c-2.718-0.474-4.069-5.316-3.076-11.024
						c0.994-5.708,3.909-9.803,6.619-9.337c0.14,0.024,0.233,0.157,0.209,0.297c-0.024,0.139-0.162,0.232-0.297,0.209
						c-2.393-0.413-5.098,3.587-6.025,8.919c-0.929,5.334,0.264,10.013,2.658,10.43c0.14,0.024,0.233,0.157,0.209,0.297
						C513.824,178.528,513.716,178.616,513.593,178.616z"/>
				</g>
			</g>
			<path style="fill:#5AC7E0;" d="M487.413,189.764h-40.757c-5.487,0-10.171-3.964-11.077-9.376l-4.5-26.862
				c-0.953-5.69,3.433-10.872,9.202-10.872h53.507c5.769,0,10.155,5.183,9.202,10.872l-4.5,26.862
				C497.584,185.799,492.9,189.764,487.413,189.764z"/>
			<g>
				<path style="fill:#5AC7E0;" d="M466.302,146.427c-0.1,0-0.201-0.025-0.294-0.079c-0.798-0.458-0.989-4.222-0.915-6.135
					c0.128-3.263,1.036-9.068,5.689-11.28c0.292-0.14,0.646-0.016,0.788,0.28c0.141,0.295,0.015,0.648-0.28,0.788
					c-1.956,0.93-3.371,2.723-4.206,5.33c-1.398,4.36-0.662,9.41-0.351,10.098c0.175,0.185,0.216,0.469,0.082,0.701
					C466.706,146.32,466.507,146.427,466.302,146.427z M466.598,145.322L466.598,145.322L466.598,145.322z"/>
			</g>
			<path style="fill:#5AC7E0;" d="M477.928,125.565c1.075,1.862,0.069,4.455-2.246,5.791c-2.315,1.337-5.064,0.911-6.138-0.951
				s-0.069-4.455,2.246-5.791C474.105,123.278,476.854,123.703,477.928,125.565z"/>
			<g>
				<path style="fill:#2C2A2B;" d="M444.942,190.02c-0.126,0-0.236-0.093-0.254-0.221l-6.552-46.949
					c-0.02-0.141,0.078-0.27,0.219-0.29c0.135-0.024,0.27,0.079,0.289,0.218l6.552,46.949c0.02,0.141-0.078,0.27-0.219,0.29
					C444.966,190.02,444.954,190.02,444.942,190.02z"/>
			</g>
			<g>
				<path style="fill:#2C2A2B;" d="M488.805,190.02c-0.012,0-0.023-0.001-0.035-0.002c-0.141-0.02-0.238-0.149-0.219-0.29
					l6.552-46.949c0.02-0.14,0.153-0.242,0.289-0.218c0.141,0.02,0.238,0.149,0.219,0.29l-6.552,46.949
					C489.041,189.927,488.931,190.02,488.805,190.02z"/>
			</g>
			<path style="fill:#FFFFFF;" d="M495.517,161.099c0,9.084-6.452,21.948-28.723,21.948c-21.004,0-28.242-12.864-28.242-21.948
				c0-9.084,13.335-10.947,28.242-10.947C481.702,150.152,495.517,152.016,495.517,161.099z"/>
			<g>
				<path style="fill:#2C2A2B;" d="M457.529,164.676c0,3.575-2.898,6.473-6.473,6.473c-3.575,0-6.473-2.898-6.473-6.473
					c0-3.575,2.898-6.473,6.473-6.473C454.63,158.203,457.529,161.101,457.529,164.676z"/>
				<path style="fill:#2C2A2B;" d="M489.487,164.676c0,3.575-2.898,6.473-6.473,6.473c-3.575,0-6.473-2.898-6.473-6.473
					c0-3.575,2.898-6.473,6.473-6.473C486.589,158.203,489.487,161.101,489.487,164.676z"/>
			</g>
		</g>
		<path style="fill:#5AC7E0;" d="M521.995,219.898l-0.759,3.334c-3.416,14.826-9.911,28.82-19.411,40.701
			c-22.992,28.748-49.114,28.964-72.588-2.719c-8.3-11.194-14.005-24.1-17.124-37.674l-0.841-3.642
			c-2.606-11.347,7.603-21.905,21.197-21.905h68.33C514.392,197.993,524.611,208.55,521.995,219.898z"/>
		<g>
			<defs>
				<path id="SVGID_00000093881428426084391280000009457949395507151276_" d="M429.236,261.215
					c-8.296-11.197-14.002-24.097-17.127-37.678l-0.836-3.635c-2.612-11.351,7.604-21.908,21.2-21.908h68.326
					c13.596,0,23.812,10.557,21.2,21.908l-0.766,3.327c-3.412,14.826-9.908,28.826-19.409,40.708
					C478.836,292.684,452.711,292.901,429.236,261.215z"/>
			</defs>
			<clipPath id="SVGID_00000109011988110802146460000017179884948577331844_">
				<use xlink:href="#SVGID_00000093881428426084391280000009457949395507151276_"  style="overflow:visible;"/>
			</clipPath>
			<path style="clip-path:url(#SVGID_00000109011988110802146460000017179884948577331844_);fill:#2C2A2B;" d="M524.967,220.245
				c1.53,6.574-1.633,12.928-7.064,14.191c-5.431,1.264-11.074-3.041-12.603-9.615c-1.53-6.574,1.633-12.928,7.064-14.191
				C517.795,209.366,523.438,213.671,524.967,220.245z"/>
			<g style="clip-path:url(#SVGID_00000109011988110802146460000017179884948577331844_);">
				<path style="fill:#2C2A2B;" d="M514.087,238.709c-7.471,0-14.264-6.93-15.568-16.279c-1.401-10.043,4.053-19.134,12.158-20.265
					c8.097-1.114,15.839,6.12,17.24,16.163c0,0,0,0,0.001,0c1.4,10.043-4.054,19.134-12.159,20.265
					C515.199,238.67,514.642,238.709,514.087,238.709z M512.351,202.634c-0.528,0-1.06,0.036-1.594,0.11
					c-7.785,1.087-13.017,9.881-11.66,19.605c1.357,9.723,8.787,16.749,16.582,15.664c7.785-1.087,13.016-9.882,11.66-19.605l0,0
					C526.074,209.352,519.533,202.634,512.351,202.634z"/>
			</g>
			<g style="clip-path:url(#SVGID_00000109011988110802146460000017179884948577331844_);">
				<path style="fill:#2C2A2B;" d="M406.506,234.92c-1.337,0-2.671-0.213-3.97-0.66c-7.738-2.664-11.349-12.633-8.047-22.22
					c1.596-4.634,4.549-8.492,8.315-10.865c3.789-2.386,7.945-2.986,11.704-1.691c7.738,2.664,11.348,12.632,8.048,22.219l0,0
					C419.81,229.681,413.13,234.92,406.506,234.92z M410.51,199.401c-2.475,0-5.008,0.767-7.393,2.269
					c-3.655,2.302-6.523,6.052-8.075,10.56c-3.196,9.283,0.251,18.918,7.684,21.477c7.432,2.557,16.082-2.911,19.278-12.194
					c3.195-9.283-0.252-18.917-7.685-21.477C413.085,199.611,411.805,199.401,410.51,199.401z M422.28,221.607h0.007H422.28z"/>
			</g>
			<g style="clip-path:url(#SVGID_00000109011988110802146460000017179884948577331844_);">
				<path style="fill:#2C2A2B;" d="M466.281,295.827c-15.814,0-28.681-4.747-28.681-10.583c0-5.835,12.866-10.582,28.681-10.582
					c15.815,0,28.682,4.747,28.682,10.582C494.963,291.08,482.097,295.827,466.281,295.827z M466.281,275.246
					c-15.492,0-28.097,4.485-28.097,9.998c0,5.514,12.604,9.999,28.097,9.999c15.493,0,28.098-4.485,28.098-9.999
					C494.379,279.731,481.774,275.246,466.281,275.246z"/>
			</g>
		</g>
		<g>
			<path style="fill:#1388E5;" d="M506.197,264.097c-7.875,0-17.318-2.796-28.662-8.404c-2.54-1.255-3.581-4.332-2.326-6.872
				c1.256-2.54,4.333-3.579,6.872-2.326c24.735,12.23,31.726,6.056,34.359,3.733c4.049-3.576,2.286-9.48-2.394-21.18
				c-1.617-4.041-3.288-8.219-4.55-12.579c-0.788-2.721,0.781-5.566,3.502-6.354c2.723-0.783,5.567,0.781,6.353,3.502
				c1.121,3.872,2.696,7.811,4.22,11.62c4.487,11.216,9.573,23.927-0.342,32.682C518.569,262.034,512.961,264.097,506.197,264.097z"
				/>
		</g>
		<path style="fill:#2C2A2B;" d="M499.618,197.993c0,1.077-14.589,1.939-32.585,1.939c-17.996,0-32.575-0.862-32.575-1.939H499.618z
			"/>
		<g>
			<defs>
				<path id="SVGID_00000163791553046752019420000015595621484188786850_" d="M506.197,264.097c-7.875,0-17.318-2.796-28.662-8.404
					c-2.54-1.255-3.581-4.332-2.326-6.872c1.256-2.54,4.333-3.579,6.872-2.326c24.735,12.23,31.726,6.056,34.359,3.733
					c4.049-3.576,2.286-9.48-2.394-21.18c-1.617-4.041-3.288-8.219-4.55-12.579c-0.788-2.721,0.781-5.566,3.502-6.354
					c2.723-0.783,5.567,0.781,6.353,3.502c1.121,3.872,2.696,7.811,4.22,11.62c4.487,11.216,9.573,23.927-0.342,32.682
					C518.569,262.034,512.961,264.097,506.197,264.097z"/>
			</defs>
			<clipPath id="SVGID_00000054952592121889344430000011842522229138064516_">
				<use xlink:href="#SVGID_00000163791553046752019420000015595621484188786850_"  style="overflow:visible;"/>
			</clipPath>
			<g style="clip-path:url(#SVGID_00000054952592121889344430000011842522229138064516_);">
				<path style="fill:#2C2A2B;" d="M480.871,266.685c-0.368,0-0.736-0.025-1.104-0.077c-0.16-0.021-0.271-0.17-0.249-0.329
					c0.021-0.159,0.16-0.272,0.329-0.249c2.637,0.362,5.314-0.704,7.546-3.016c2.257-2.337,3.783-5.654,4.298-9.341
					c1.057-7.578-2.536-14.364-8.008-15.128c-0.16-0.021-0.272-0.17-0.25-0.329c0.022-0.159,0.163-0.275,0.33-0.249
					c5.792,0.808,9.607,7.89,8.507,15.786c-0.532,3.809-2.114,7.242-4.456,9.667C485.757,265.552,483.327,266.685,480.871,266.685z"
					/>
			</g>
			<g style="clip-path:url(#SVGID_00000054952592121889344430000011842522229138064516_);">
				<path style="fill:#2C2A2B;" d="M499.771,271.709c-0.361,0-0.724-0.025-1.087-0.076c-0.16-0.022-0.272-0.17-0.249-0.329
					c0.022-0.159,0.161-0.272,0.329-0.249c5.474,0.766,10.785-4.779,11.844-12.356c1.057-7.577-2.536-14.363-8.008-15.128
					c-0.16-0.021-0.271-0.17-0.249-0.329c0.021-0.159,0.164-0.27,0.329-0.249c5.792,0.809,9.607,7.891,8.507,15.786
					C510.153,266.179,505.162,271.709,499.771,271.709z"/>
			</g>
			<g style="clip-path:url(#SVGID_00000054952592121889344430000011842522229138064516_);">
				<path style="fill:#2C2A2B;" d="M534.586,252.45c-0.007,0-0.014,0-0.021,0c-0.161-0.012-0.282-0.151-0.271-0.313
					c0.392-5.512-5.499-10.436-13.13-10.979c-7.623-0.543-14.157,3.502-14.549,9.014c-0.012,0.161-0.148,0.278-0.313,0.271
					c-0.161-0.012-0.282-0.151-0.271-0.313c0.414-5.834,7.22-10.122,15.174-9.557c7.953,0.565,14.087,5.771,13.673,11.604
					C534.866,252.333,534.738,252.45,534.586,252.45z"/>
			</g>
			<g style="clip-path:url(#SVGID_00000054952592121889344430000011842522229138064516_);">
				<path style="fill:#2C2A2B;" d="M505.038,232.966c-0.151,0-0.28-0.116-0.291-0.27c-0.445-5.831,5.66-11.069,13.609-11.676
					c3.834-0.295,7.526,0.521,10.395,2.292c2.898,1.788,4.613,4.339,4.831,7.182c0.012,0.161-0.108,0.302-0.269,0.314
					c-0.185,0.02-0.303-0.108-0.313-0.269c-0.203-2.651-1.82-5.041-4.555-6.729c-2.765-1.707-6.338-2.492-10.043-2.206
					c-7.629,0.582-13.492,5.538-13.071,11.048c0.012,0.161-0.108,0.302-0.27,0.314C505.053,232.966,505.045,232.966,505.038,232.966
					z"/>
			</g>
		</g>
		<g>
			<path style="fill:#F9773B;" d="M482.906,238.292h-34.481c-2.819,0-5.226-2.033-5.699-4.811l-2.325-13.66
				c-0.601-3.53,2.119-6.751,5.699-6.751h39.132c3.581,0,6.3,3.221,5.699,6.751l-2.325,13.66
				C488.133,236.26,485.725,238.292,482.906,238.292z"/>
			<path style="fill:#FFFFFF;" d="M482.906,238.549h-34.48c-2.954,0-5.457-2.113-5.952-5.025l-2.325-13.66
				c-0.3-1.757,0.188-3.545,1.338-4.907c1.149-1.362,2.831-2.144,4.614-2.144h39.131c1.783,0,3.465,0.781,4.614,2.144
				c1.149,1.362,1.638,3.15,1.338,4.907l-2.325,13.66C488.363,236.436,485.86,238.549,482.906,238.549z M446.101,213.326
				c-1.632,0-3.171,0.715-4.223,1.961c-1.052,1.246-1.498,2.883-1.224,4.49l2.325,13.66c0.453,2.664,2.743,4.598,5.446,4.598h34.48
				c2.703,0,4.993-1.934,5.446-4.598l2.325-13.66c0.274-1.607-0.172-3.244-1.224-4.49c-1.052-1.246-2.591-1.961-4.223-1.961H446.101
				z"/>
		</g>
		<g>
			<path style="fill:#0B42F8;" d="M480.214,222.032h4.9H480.214z"/>
			<path style="fill:#FFFFFF;" d="M485.114,222.288h-4.9c-0.142,0-0.257-0.115-0.257-0.257c0-0.142,0.115-0.257,0.257-0.257h4.9
				c0.142,0,0.257,0.115,0.257,0.257C485.371,222.173,485.256,222.288,485.114,222.288z"/>
		</g>
		<g>
			<path style="fill:#0B42F8;" d="M463.212,222.032h14.348H463.212z"/>
			<path style="fill:#FFFFFF;" d="M477.56,222.288h-14.348c-0.142,0-0.257-0.115-0.257-0.257c0-0.142,0.115-0.257,0.257-0.257
				h14.348c0.142,0,0.257,0.115,0.257,0.257C477.816,222.173,477.701,222.288,477.56,222.288z"/>
		</g>
		<g>
			<path style="fill:#0B42F8;" d="M446.218,222.032h11.355H446.218z"/>
			<path style="fill:#FFFFFF;" d="M457.573,222.288h-11.355c-0.142,0-0.257-0.115-0.257-0.257c0-0.142,0.115-0.257,0.257-0.257
				h11.355c0.142,0,0.257,0.115,0.257,0.257C457.83,222.173,457.715,222.288,457.573,222.288z"/>
		</g>
		<g>
			<path style="fill:#0B42F8;" d="M472.833,229.33h12.281H472.833z"/>
			<path style="fill:#FFFFFF;" d="M485.114,229.587h-12.281c-0.142,0-0.257-0.115-0.257-0.257c0-0.142,0.115-0.257,0.257-0.257
				h12.281c0.142,0,0.257,0.115,0.257,0.257C485.371,229.472,485.256,229.587,485.114,229.587z"/>
		</g>
		<g>
			<path style="fill:#0B42F8;" d="M453.758,229.33h14.762H453.758z"/>
			<path style="fill:#FFFFFF;" d="M468.52,229.587h-14.763c-0.142,0-0.257-0.115-0.257-0.257c0-0.142,0.115-0.257,0.257-0.257
				h14.763c0.142,0,0.257,0.115,0.257,0.257C468.777,229.472,468.662,229.587,468.52,229.587z"/>
		</g>
		<g>
			<path style="fill:#0B42F8;" d="M446.218,229.33h4.388H446.218z"/>
			<path style="fill:#FFFFFF;" d="M450.606,229.587h-4.389c-0.142,0-0.257-0.115-0.257-0.257c0-0.142,0.115-0.257,0.257-0.257h4.389
				c0.142,0,0.257,0.115,0.257,0.257C450.863,229.472,450.748,229.587,450.606,229.587z"/>
		</g>
	</g>
	<path style="fill:#1388E5;" d="M468.954,173.948c0,1.058-0.858,1.916-1.916,1.916c-1.058,0-1.916-0.858-1.916-1.916
		c0-1.058,0.858-1.916,1.916-1.916C468.096,172.032,468.954,172.89,468.954,173.948z"/>
	<g>
		<path style="fill:#FFFFFF;" d="M465.666,318.986c-11.177,0-23.056-1.606-23.056-4.583c0-2.977,11.879-4.582,23.056-4.582
			c11.177,0,23.056,1.605,23.056,4.582C488.722,317.38,476.843,318.986,465.666,318.986z M465.666,310.571
			c-13.146,0-22.306,2.02-22.306,3.832s9.16,3.833,22.306,3.833s22.306-2.021,22.306-3.833S478.811,310.571,465.666,310.571z"/>
	</g>
	<g>
		<path style="fill:#FFFFFF;" d="M465.666,303.804c-20.515,0-42.317-2.083-42.317-5.943c0-3.861,21.803-5.944,42.317-5.944
			c20.515,0,42.317,2.083,42.317,5.944C507.983,301.721,486.181,303.804,465.666,303.804z M465.666,292.666
			c-24.496,0-41.567,2.737-41.567,5.194c0,2.456,17.071,5.193,41.567,5.193s41.567-2.737,41.567-5.193
			C507.233,295.403,490.162,292.666,465.666,292.666z"/>
	</g>
	<path style="fill:#FFFFFF;" d="M447.675,163.653c0,0.565-0.458,1.023-1.023,1.023c-0.565,0-1.023-0.458-1.023-1.023
		c0-0.565,0.458-1.023,1.023-1.023C447.217,162.63,447.675,163.088,447.675,163.653z"/>
	<path style="fill:#FFFFFF;" d="M480.677,163.653c0,0.565-0.458,1.023-1.023,1.023c-0.565,0-1.023-0.458-1.023-1.023
		c0-0.565,0.458-1.023,1.023-1.023C480.219,162.63,480.677,163.088,480.677,163.653z"/>
</g>
</svg>
